<svg xmlns="http://www.w3.org/2000/svg" viewBox="0 0 2349 1236"><style>.st1{fill:#37776b}.st2{fill:#5c2d91}.st4{fill:#efba84}.st8{fill:#1f385b}</style><g id="Background"><path fill="#1d917b" d="M-12-21h2377v1109H-12z"/><path class="st1" d="M976.4 707.4c-.2 0-.4-.1-.6-.2l-3.8-3.9-2.4 2.4c-1.5 1.6-4 1.6-5.6 0-1.5-1.6-1.5-4.1 0-5.7l22.1-22.6c-2.4-4.9-1.5-11 2.3-14.9 2.4-2.4 5.6-3.8 8.9-3.8 3.4 0 6.5 1.3 8.9 3.8s3.7 5.7 3.7 9.1c0 3.4-1.3 6.7-3.7 9.1-3.9 3.9-9.8 4.9-14.6 2.4l-9.2 9.4 5.1 5.2c.3.3.3.8 0 1.2l-3.4 3.5c-.3.3-.8.3-1.1 0l-5.1-5.2-1.5 1.5 3.8 3.9c.3.3.3.8 0 1.2l-3.4 3.5c.1 0-.2.1-.4.1zm-4.3-6.1c.2 0 .4.1.6.2l3.8 3.9 2.3-2.3-3.8-3.9c-.3-.3-.3-.8 0-1.2l2.6-2.6c.3-.3.8-.3 1.1 0l5.1 5.2 2.3-2.3-5.1-5.2c-.3-.3-.3-.8 0-1.2l10.1-10.4c.3-.3.6-.3 1-.1 4.3 2.5 9.7 1.8 13.2-1.8 2.1-2.1 3.2-5 3.2-8s-1.1-5.8-3.2-8c-2.1-2.1-4.9-3.3-7.8-3.3-2.9 0-5.7 1.2-7.8 3.3-3.5 3.6-4.2 9.1-1.8 13.5.2.3.1.7-.1 1l-22.5 23c-.9.9-.9 2.5 0 3.4.9.9 2.4.9 3.3 0l2.9-3c.2-.2.4-.2.6-.2zm27.5-26.3c-1.4 0-2.8-.5-3.8-1.6-1-1-1.6-2.4-1.6-3.9s.6-2.9 1.6-3.9c2.1-2.2 5.6-2.2 7.7 0 2.1 2.2 2.1 5.7 0 7.9-1.2.9-2.5 1.5-3.9 1.5zm0-9.5c-1 0-2 .4-2.7 1.1-.7.7-1.1 1.7-1.1 2.8 0 1 .4 2 1.1 2.8 1.5 1.5 3.9 1.5 5.4 0 1.5-1.5 1.5-4 0-5.5-.8-.8-1.8-1.2-2.7-1.2zm-46.9 23.1c-3.4 0-6.5-1.3-8.9-3.8-2.4-2.4-3.7-5.7-3.7-9.1 0-3.4 1.3-6.7 3.7-9.1 3.9-3.9 9.8-4.9 14.6-2.4l9.2-9.4-5.1-5.2c-.3-.3-.3-.8 0-1.2l3.4-3.5c.3-.3.8-.3 1.1 0l5.1 5.2 1.5-1.5-3.8-3.9c-.1-.2-.2-.4-.2-.6 0-.2.1-.4.2-.6l3.4-3.5c.3-.3.8-.3 1.1 0l3.8 3.9 2.4-2.4c1.5-1.5 4.1-1.5 5.6 0 .7.8 1.2 1.8 1.2 2.8 0 1.1-.4 2.1-1.2 2.8L964 669.9c2.4 4.9 1.5 11-2.3 14.9-2.4 2.4-5.6 3.8-9 3.8zm0-24.2c-2.9 0-5.7 1.1-7.8 3.3-2.1 2.1-3.2 5-3.2 8s1.1 5.8 3.2 8c2.1 2.1 4.9 3.3 7.8 3.3 2.9 0 5.7-1.2 7.8-3.3 3.5-3.6 4.2-9.1 1.8-13.5-.2-.3-.1-.7.1-1l22.5-23c.4-.5.7-1.1.7-1.7s-.2-1.2-.7-1.7c-.9-.9-2.4-.9-3.3 0l-2.9 3c-.3.3-.8.3-1.1 0l-3.8-3.9-2.3 2.3 3.8 3.9c.3.3.3.8 0 1.2l-2.6 2.6c-.3.3-.8.3-1.1 0l-5.1-5.2-2.3 2.3 5.1 5.2c.3.3.3.8 0 1.2l-10.1 10.4c-.3.3-.6.3-1 .1-1.7-1-3.6-1.5-5.5-1.5zm-2.1 19c-1.4 0-2.8-.5-3.8-1.6-1-1-1.6-2.4-1.6-3.9s.6-2.9 1.6-3.9c2.1-2.2 5.6-2.2 7.7 0 1 1 1.6 2.4 1.6 3.9s-.6 2.9-1.6 3.9c-1.1 1-2.5 1.6-3.9 1.6zm0-9.5c-1 0-2 .4-2.7 1.1-.7.7-1.1 1.7-1.1 2.8 0 1 .4 2 1.1 2.8 1.5 1.5 3.9 1.5 5.4 0 .7-.7 1.1-1.7 1.1-2.8 0-1-.4-2-1.1-2.8-.7-.7-1.7-1.1-2.7-1.1z"/></g><g id="Background_network"><path class="st1" d="M1317.3 403.3c-.1 0-.3 0-.4-.1-22.3-10.8-29.8-20.7-29.8-39.2v-25.7c0-.4.3-.8.7-.9l29.3-7.1h.4l29.3 7.1c.4.1.7.4.7.9V364c0 18.5-7.5 28.4-29.8 39.2-.2.1-.3.1-.4.1zm-28.5-64.3v25c0 17.6 7.2 27.1 28.4 37.4 21.2-10.3 28.4-19.8 28.4-37.4v-25l-28.4-6.9-28.4 6.9z"/><path class="st1" d="M1317.3 399.1c-.3 0-.6-.2-.8-.5-.2-.4-.1-1 .4-1.2 1.3-.7 2.5-1.3 3.6-2 .4-.2 1-.1 1.2.3.2.4.1 1-.3 1.2-1.2.7-2.4 1.3-3.7 2-.2.1-.3.2-.4.2zm8.3-4.9c-.3 0-.6-.1-.7-.4-.3-.4-.2-.9.2-1.2 11.9-8 16.6-16.3 16.6-29.7v-20.8c0-.5.4-.9.9-.9s.9.4.9.9v20.8c0 13.9-5 22.9-17.3 31.2-.3.1-.5.1-.6.1z"/><path class="st1" d="M1326.9 382.4h-19.1c-2.3 0-4.2-1.8-4.2-3.9v-15.3c0-2.1 1.9-3.9 4.2-3.9h19.1c2.3 0 4.2 1.8 4.2 3.9v15.3c0 2.2-1.9 3.9-4.2 3.9zm-19.1-21.3c-1.3 0-2.4 1-2.4 2.1v15.3c0 1.2 1.1 2.1 2.4 2.1h19.1c1.3 0 2.4-1 2.4-2.1v-15.3c0-1.2-1.1-2.1-2.4-2.1h-19.1z"/><path class="st1" d="M1320.1 376.6h-6.1c-.3 0-.5-.1-.7-.4-.2-.2-.2-.5-.1-.8l1.6-4.6c-.6-.6-1-1.3-1-2.2 0-1.7 1.5-3 3.3-3 1.8 0 3.3 1.4 3.3 3 0 .8-.4 1.6-1 2.2l1.6 4.6c.1.3 0 .6-.1.8-.3.3-.5.4-.8.4zm-4.9-1.7h3.7l-1.4-4.1c-.1-.4 0-.8.4-1 .4-.2.7-.6.7-1.1 0-.7-.7-1.3-1.5-1.3-.9 0-1.6.6-1.6 1.3 0 .4.3.8.7 1.1.4.2.5.6.4 1l-1.4 4.1zm9.7-14.1c-.5 0-.9-.4-.9-.9v-8.1c0-3.9-3.2-7.1-7.1-7.1s-7.1 3.2-7.1 7.1v8.1c0 .5-.4.9-.9.9s-.9-.4-.9-.9v-8.1c0-4.9 4-8.8 8.8-8.8s8.8 4 8.8 8.8v8.1c.2.5-.2.9-.7.9zm248-235h-7.5c-.5 0-.9-.4-.9-.9s.4-.9.9-.9h7.5c.5 0 .9.4.9.9s-.4.9-.9.9zm13.8 0h-5.8c-.5 0-.9-.4-.9-.9s.4-.9.9-.9h5.8c.5 0 .8-.4.8-.8v-18c0-.5.4-.9.9-.9s.9.4.9.9v18c.1 1.4-1.1 2.6-2.6 2.6z"/><path class="st1" d="M1614.8 115.7h-16c-.5 0-.9-.4-.9-.9V106h-8.6v8.7c0 .5-.4.9-.9.9h-16.1c-8.9-.4-15.9-7.7-15.9-16.6 0-8.7 6.6-15.8 15.2-16.6 2.6-8.3 10.3-14.1 19-14.1 9 0 16.9 6.1 19.2 14.7 1.6-.5 3.3-.8 4.9-.8 9.2 0 16.6 7.5 16.6 16.6.2 9.5-7.3 16.9-16.5 16.9zm-15.1-1.8h15.1c8.2 0 14.8-6.7 14.8-14.8 0-8.2-6.7-14.8-14.8-14.8-1.8 0-3.6.3-5.3 1-.2.1-.5.1-.7 0-.2-.1-.4-.3-.4-.6-1.8-8.3-9.2-14.3-17.7-14.3-8.1 0-15.3 5.5-17.5 13.4-.1.4-.4.6-.8.7-7.9.4-14.1 6.9-14.1 14.8s6.2 14.4 14.2 14.8h15.2v-8.7c0-.5.4-.9.9-.9h10.4c.5 0 .9.4.9.9v8.5z"/><path class="st1" d="M1578.9 85.5h-.2a.8.8 0 0 1-.6-1.1c1.5-5.6 6.7-9.5 12.5-9.5.5 0 .9.4.9.9s-.4.9-.9.9c-5 0-9.4 3.4-10.7 8.2-.2.3-.6.6-1 .6zm27.5 20.5h-24.8c-.5 0-.9-.4-.9-.9s.4-.9.9-.9h24.8c.5 0 .9.4.9.9s-.4.9-.9.9zm-45 23.8c-2.7 0-4.9-2.2-4.9-4.9s2.2-4.9 4.9-4.9 4.9 2.2 4.9 4.9-2.2 4.9-4.9 4.9zm0-8.1c-1.7 0-3.1 1.4-3.1 3.1 0 1.7 1.4 3.1 3.1 3.1 1.7 0 3.1-1.4 3.1-3.1 0-1.7-1.4-3.1-3.1-3.1zm15.5 8.1c-2.7 0-4.9-2.2-4.9-4.9s2.2-4.9 4.9-4.9 4.9 2.2 4.9 4.9-2.2 4.9-4.9 4.9zm0-8.1c-1.7 0-3.1 1.4-3.1 3.1 0 1.7 1.4 3.1 3.1 3.1 1.7 0 3.1-1.4 3.1-3.1 0-1.7-1.4-3.1-3.1-3.1zm45 13.1h-7.5c-.5 0-.9-.4-.9-.9s.4-.9.9-.9h7.5c.5 0 .9.4.9.9s-.4.9-.9.9z"/><path class="st1" d="M1606.4 134.8h-5.8c-1.5 0-2.6-1.2-2.6-2.6v-27c0-.5.4-.9.9-.9s.9.4.9.9v27c0 .5.4.8.8.8h5.8c.5 0 .9.4.9.9s-.4.9-.9.9zm19.5 4c-2.7 0-4.9-2.2-4.9-4.9s2.2-4.9 4.9-4.9 4.9 2.2 4.9 4.9-2.2 4.9-4.9 4.9zm0-8c-1.7 0-3.1 1.4-3.1 3.1 0 1.7 1.4 3.1 3.1 3.1 1.7 0 3.1-1.4 3.1-3.1 0-1.7-1.4-3.1-3.1-3.1z"/><path class="st1" d="M1610.4 138.8c-2.7 0-4.9-2.2-4.9-4.9s2.2-4.9 4.9-4.9 4.9 2.2 4.9 4.9-2.2 4.9-4.9 4.9zm0-8c-1.7 0-3.1 1.4-3.1 3.1 0 1.7 1.4 3.1 3.1 3.1 1.7 0 3.1-1.4 3.1-3.1 0-1.7-1.4-3.1-3.1-3.1zm-18.5 8.2h-5.8c-.5 0-.9-.4-.9-.9s.4-.9.9-.9h5.8c.5 0 .8-.4.8-.8v-31.2c0-.5.4-.9.9-.9s.9.4.9.9v31.2c0 1.4-1.1 2.6-2.6 2.6z"/><path class="st1" d="M1581.6 143c-2.7 0-4.9-2.2-4.9-4.9s2.2-4.9 4.9-4.9 4.9 2.2 4.9 4.9-2.2 4.9-4.9 4.9zm0-8c-1.7 0-3.1 1.4-3.1 3.1 0 1.7 1.4 3.1 3.1 3.1 1.7 0 3.1-1.4 3.1-3.1 0-1.7-1.4-3.1-3.1-3.1zM277.8 532.6c-9.9 0-20.4-2.3-20.4-6.7s10.5-6.7 20.4-6.7 20.4 2.3 20.4 6.7c.1 4.4-10.5 6.7-20.4 6.7zm0-11.6c-11.6 0-18.7 2.9-18.7 4.9s7.1 4.9 18.7 4.9 18.7-2.9 18.7-4.9-7.1-4.9-18.7-4.9z"/><path class="st1" d="M277.8 541.4c-9.9 0-20.4-2.3-20.4-6.7v-8.8c0-.5.4-.9.9-.9s.9.4.9.9v8.8c0 2.1 7.1 4.9 18.7 4.9s18.7-2.9 18.7-4.9v-8.2c0-.5.4-.9.9-.9s.9.4.9.9v8.2c-.1 4.3-10.7 6.7-20.6 6.7z"/><path class="st1" d="M277.8 550.5c-9.9 0-20.4-2.3-20.4-6.7v-3.9c0-.5.4-.9.9-.9s.9.4.9.9v3.9c0 2.1 7.1 4.9 18.7 4.9s18.7-2.9 18.7-4.9v-3.9c0-.5.4-.9.9-.9s.9.4.9.9v3.9c-.1 4.3-10.7 6.7-20.6 6.7zm39.1-36.3c-9.9 0-20.4-2.3-20.4-6.7 0-4.3 10.5-6.7 20.4-6.7 9.9 0 20.4 2.3 20.4 6.7.1 4.3-10.5 6.7-20.4 6.7zm0-11.6c-11.6 0-18.7 2.9-18.7 4.9s7.1 4.9 18.7 4.9 18.7-2.9 18.7-4.9-7.1-4.9-18.7-4.9z"/><path class="st1" d="M316.9 522.9c-9.9 0-20.4-2.3-20.4-6.7v-8.8c0-.5.4-.9.9-.9s.9.4.9.9v8.8c0 2.1 7.1 4.9 18.7 4.9s18.7-2.9 18.7-4.9V508c0-.5.4-.9.9-.9s.9.4.9.9v8.2c-.1 4.4-10.7 6.7-20.6 6.7z"/><path class="st1" d="M316.9 532c-9.9 0-20.4-2.3-20.4-6.7v-3.9c0-.5.4-.9.9-.9s.9.4.9.9v3.9c0 2.1 7.1 4.9 18.7 4.9s18.7-2.9 18.7-4.9v-3.9c0-.5.4-.9.9-.9s.9.4.9.9v3.9c-.1 4.4-10.7 6.7-20.6 6.7z"/><path class="st1" d="M316.9 541.2c-9.9 0-20.4-2.3-20.4-6.7v-3.9c0-.5.4-.9.9-.9s.9.4.9.9v3.9c0 2.1 7.1 4.9 18.7 4.9s18.7-2.9 18.7-4.9v-3.9c0-.5.4-.9.9-.9s.9.4.9.9v3.9c-.1 4.4-10.7 6.7-20.6 6.7z"/><path class="st1" d="M316.9 550.5c-9.9 0-20.4-2.3-20.4-6.7v-18.4c0-.5.4-.9.9-.9s.9.4.9.9v18.4c0 2.1 7.1 4.9 18.7 4.9s18.7-2.9 18.7-4.9v-3.9c0-.5.4-.9.9-.9s.9.4.9.9v3.9c-.1 4.3-10.7 6.7-20.6 6.7zM272 526.8c-.5 0-.9-.4-.9-.9v-18.6l-8.1-7.6c-.2-.2-.3-.4-.3-.6v-12.8c0-.5.4-.9.9-.9s.9.4.9.9v12.4l8.1 7.6c.2.2.3.4.3.6v19c0 .5-.4.9-.9.9zm52.6-18.4c-.5 0-.9-.4-.9-.9v-9.1c0-.2.1-.5.3-.6l8.1-7.6v-8.7c0-.5.4-.9.9-.9s.9.4.9.9v9c0 .2-.1.5-.3.6l-8.1 7.6v8.8c0 .5-.4.9-.9.9zm-45.1 18.4c-.5 0-.9-.4-.9-.9v-28c0-.5.4-.9.9-.9s.9.4.9.9v28c0 .5-.4.9-.9.9zm0-33.8c-.5 0-.9-.4-.9-.9v-5.6c0-.5.4-.9.9-.9s.9.4.9.9v5.6c0 .5-.4.9-.9.9z"/><path class="st1" d="M279.5 487.2c-2.9 0-5.2-2.3-5.2-5.2s2.3-5.2 5.2-5.2c2.9 0 5.2 2.3 5.2 5.2s-2.4 5.2-5.2 5.2zm0-8.6c-1.9 0-3.4 1.5-3.4 3.4s1.5 3.4 3.4 3.4 3.4-1.5 3.4-3.4-1.6-3.4-3.4-3.4zm37.4 29.8c-.5 0-.9-.4-.9-.9V490c0-.5.4-.9.9-.9s.9.4.9.9v17.5c0 .5-.4.9-.9.9z"/><path class="st1" d="M316.9 490.9c-2.9 0-5.2-2.3-5.2-5.2 0-2.9 2.3-5.2 5.2-5.2s5.2 2.3 5.2 5.2c0 2.9-2.3 5.2-5.2 5.2zm0-8.6c-1.9 0-3.4 1.5-3.4 3.4s1.5 3.4 3.4 3.4 3.4-1.5 3.4-3.4-1.5-3.4-3.4-3.4zm-7.6 26.1c-.5 0-.9-.4-.9-.9v-12.4c0-.5.4-.9.9-.9s.9.4.9.9v12.4c0 .5-.4.9-.9.9zm785.8-10.6c-4.8 0-8.7-3.9-8.7-8.7 0-4.8 3.9-8.7 8.7-8.7 4.8 0 8.7 3.9 8.7 8.7 0 4.8-3.9 8.7-8.7 8.7zm0-15.7c-3.8 0-7 3.1-7 7 0 3.8 3.1 7 7 7 3.8 0 7-3.1 7-7-.1-3.8-3.2-7-7-7zm8 37.2h-21.8c-.5 0-.9-.4-.9-.9v-12c0-3.8 3.1-6.9 6.9-6.9h15.4c3.8 0 6.9 3.1 6.9 6.9 0 .5-.4.9-.9.9s-.9-.4-.9-.9c0-2.9-2.3-5.2-5.2-5.2h-15.4c-2.9 0-5.2 2.3-5.2 5.2v11.1h21c.5 0 .9.4.9.9.1.5-.3.9-.8.9z"/><path class="st1" d="M1103.1 519.3c-.5 0-.9-.4-.9-.9v-9c0-.5.4-.9.9-.9s.9.4.9.9v9c0 .5-.4.9-.9.9zm-16.1 0c-.5 0-.9-.4-.9-.9v-9c0-.5.4-.9.9-.9s.9.4.9.9v9c0 .5-.4.9-.9.9zm78.6 0h-21.8c-.5 0-.9-.4-.9-.9s.4-.9.9-.9h21v-11.1c0-2.9-2.3-5.2-5.2-5.2h-15.4c-2.9 0-5.2 2.3-5.2 5.2 0 .5-.4.9-.9.9s-.9-.4-.9-.9c0-3.8 3.1-6.9 6.9-6.9h15.4c3.8 0 6.9 3.1 6.9 6.9v12c0 .5-.4.9-.8.9zm-13.8-21.5c-4.8 0-8.7-3.9-8.7-8.7 0-4.8 3.9-8.7 8.7-8.7 4.8 0 8.7 3.9 8.7 8.7 0 4.8-3.9 8.7-8.7 8.7zm0-15.7c-3.8 0-7 3.1-7 7 0 3.8 3.1 7 7 7 3.8 0 7-3.1 7-7 0-3.8-3.2-7-7-7z"/><path class="st1" d="M1143.7 519.3c-.5 0-.9-.4-.9-.9v-9c0-.5.4-.9.9-.9s.9.4.9.9v9c0 .5-.4.9-.9.9zm16.1 0c-.5 0-.9-.4-.9-.9v-9c0-.5.4-.9.9-.9s.9.4.9.9v9c0 .5-.4.9-.9.9zm-36.4 23.3c-12.9 0-24.8-7.1-30.9-18.5-.2-.4-.1-.9.3-1.2.4-.2.9-.1 1.2.3 5.8 10.9 17.1 17.6 29.4 17.6 5.3 0 10.6-1.3 15.3-3.7.4-.2.9-.1 1.2.4.2.4.1.9-.4 1.2-4.9 2.6-10.5 3.9-16.1 3.9zm19.7-6.2c-.3 0-.5-.1-.7-.4-.3-.4-.2-.9.2-1.2 2.1-1.5 4-3.2 5.8-5.2.3-.4.9-.4 1.2-.1.4.3.4.9.1 1.2-1.8 2-3.8 3.9-6.1 5.4-.1.2-.3.3-.5.3zm8.1-8.1c-.2 0-.3-.1-.5-.2-.4-.3-.5-.8-.2-1.2.8-1.2 1.6-2.4 2.3-3.7.2-.4.7-.6 1.2-.3.4.2.6.7.3 1.2-.7 1.3-1.5 2.6-2.4 3.9-.2.2-.4.3-.7.3zm-8.1-48.1c-.2 0-.3 0-.5-.1-5.5-3.7-11.9-5.7-18.6-5.7-3.3 0-6.6.5-9.8 1.5-.4.1-.9-.1-1.1-.6-.1-.5.1-.9.6-1.1 3.3-1 6.8-1.5 10.3-1.5 7 0 13.8 2.1 19.6 6 .4.3.5.8.2 1.2-.1.1-.4.3-.7.3zm-39.4.8c-.3 0-.5-.1-.7-.3-.3-.4-.2-.9.2-1.2 2.4-1.8 5-3.2 7.8-4.3.4-.2.9 0 1.1.5.2.4 0 .9-.5 1.1-2.6 1.1-5.1 2.4-7.4 4.1-.1.1-.3.1-.5.1z"/><path class="st1" d="M1123.4 508.2c-5.8 0-10.5-4.7-10.5-10.5s4.7-10.5 10.5-10.5 10.5 4.7 10.5 10.5-4.7 10.5-10.5 10.5zm0-19.3c-4.9 0-8.8 4-8.8 8.8 0 4.9 4 8.8 8.8 8.8s8.8-4 8.8-8.8c0-4.9-3.9-8.8-8.8-8.8zm17 42.2h-34c-.5 0-.9-.4-.9-.9V518c0-4.6 3.8-8.4 8.4-8.4h19c4.6 0 8.4 3.8 8.4 8.4v12.3c0 .4-.4.8-.9.8zm-33.1-1.7h32.3V518c0-3.7-3-6.6-6.6-6.6h-19c-3.7 0-6.6 3-6.6 6.6v11.4z"/><path class="st1" d="M1133.4 531.1c-.5 0-.9-.4-.9-.9v-8.6c0-.5.4-.9.9-.9s.9.4.9.9v8.6c-.1.5-.5.9-.9.9zm-19.9 0c-.5 0-.9-.4-.9-.9v-8.6c0-.5.4-.9.9-.9s.9.4.9.9v8.6c-.1.5-.5.9-.9.9zM966 83.4h-.3L945 77c-.4-.1-.6-.5-.6-.9s.3-.8.6-.9l20.8-6.4c.2-.1.4-.1.5 0l20.8 6.4c.4.1.6.5.6.9s-.3.8-.6.9l-20.8 6.4h-.3zm-17.7-7.3l17.7 5.4 17.7-5.4-17.7-5.4-17.7 5.4zm17.7 33.7h-.3l-20.8-6.4c-.5-.1-.8-.7-.6-1.1.1-.5.7-.8 1.1-.6L966 108l20.5-6.3c.5-.2 1 .1 1.1.6.1.5-.1 1-.6 1.1l-20.8 6.4h-.2z"/><path class="st1" d="M966 109.8c-.5 0-.9-.4-.9-.9V82.5c0-.5.4-.9.9-.9s.9.4.9.9V109c0 .4-.4.8-.9.8zm20.8-6.3c-.5 0-.9-.4-.9-.9V76.1c0-.5.4-.9.9-.9s.9.4.9.9v26.5c0 .5-.4.9-.9.9zm-41.6 0c-.5 0-.9-.4-.9-.9V76.1c0-.5.4-.9.9-.9s.9.4.9.9v26.5c0 .5-.4.9-.9.9z"/><path class="st1" d="M986.8 116.2h-.3l-20.8-6.4c-.4-.1-.6-.5-.6-.9s.3-.8.6-.9l20.8-6.4c.2-.1.4-.1.5 0l20.8 6.4c.4.1.6.5.6.9s-.3.8-.6.9l-20.8 6.4h-.2zm-17.7-7.3l17.7 5.4 17.7-5.4-17.7-5.4-17.7 5.4zm17.7 33.8h-.3l-20.8-6.4c-.5-.1-.8-.7-.6-1.1.1-.5.7-.8 1.1-.6l20.5 6.3 20.5-6.3c.5-.2 1 .1 1.1.6.1.5-.1 1-.6 1.1l-20.8 6.4c.1-.1 0 0-.1 0z"/><path class="st1" d="M986.8 142.7c-.5 0-.9-.4-.9-.9v-26.5c0-.5.4-.9.9-.9s.9.4.9.9v26.5c0 .4-.4.9-.9.9zm20.8-6.4c-.5 0-.9-.4-.9-.9v-26.5c0-.5.4-.9.9-.9s.9.4.9.9v26.5c0 .5-.4.9-.9.9zm-41.6 0c-.5 0-.9-.4-.9-.9v-26.5c0-.5.4-.9.9-.9s.9.4.9.9v26.5c0 .5-.4.9-.9.9z"/><path class="st1" d="M945.2 116.2h-.3l-20.8-6.4c-.4-.1-.6-.5-.6-.9s.3-.8.6-.9l20.8-6.4c.2-.1.4-.1.5 0l20.8 6.4c.4.1.6.5.6.9s-.3.8-.6.9l-20.8 6.4h-.2zm-17.6-7.3l17.7 5.4 17.7-5.4-17.7-5.4-17.7 5.4zm17.6 33.8h-.3l-20.8-6.4c-.5-.1-.8-.7-.6-1.1.1-.5.7-.8 1.1-.6l20.5 6.3 20.5-6.3c.5-.2 1 .1 1.1.6.1.5-.1 1-.6 1.1l-20.8 6.4c.1-.1 0 0-.1 0z"/><path class="st1" d="M945.2 142.7c-.5 0-.9-.4-.9-.9v-26.5c0-.5.4-.9.9-.9s.9.4.9.9v26.5c0 .4-.4.9-.9.9zm20.8-6.4c-.5 0-.9-.4-.9-.9v-26.5c0-.5.4-.9.9-.9s.9.4.9.9v26.5c0 .5-.4.9-.9.9zm-41.6 0c-.5 0-.9-.4-.9-.9v-26.5c0-.5.4-.9.9-.9s.9.4.9.9v26.5c0 .5-.4.9-.9.9zm-232.6-40c-.4 0-.7-.2-.8-.6-1.7-5.6-4.7-10.8-8.9-15-8.6-8.6-20.7-12.1-32.6-9.6-.4.1-.9-.2-1-.6-.1-.4.2-.9.6-1 12.4-2.7 25.1 1.1 34.1 10 4.4 4.4 7.6 9.8 9.3 15.7.1.4-.1.9-.6 1 0 0 0 .1-.1.1zm-66.4 28.1c-.3 0-.5-.1-.7-.4-9.4-13.7-6.9-32 6.1-44.5 3.1-3 6.4-5.3 9.7-7 .4-.2.9 0 1.1.4.2.4 0 .9-.4 1.1-3.2 1.6-6.3 3.8-9.3 6.7-12.4 11.9-14.8 29.3-5.9 42.4.3.4.2.9-.2 1.1-.1.1-.2.2-.4.2zm9.6 11c-.2 0-.4-.1-.5-.2-1.3-1-2.5-2.1-3.7-3.3-1.3-1.3-2.6-2.8-3.7-4.3-.3-.4-.2-.9.2-1.2.4-.3.9-.2 1.2.2 1.1 1.5 2.3 2.9 3.5 4.1 1.1 1.1 2.3 2.2 3.6 3.1.4.3.4.8.2 1.2-.3.3-.6.4-.8.4zm22 7.4c-5.5 0-11-1.2-16-3.6-.4-.2-.6-.7-.4-1.1.2-.4.7-.6 1.1-.4 9.5 4.6 21 4.6 30.5 0 .4-.2.9 0 1.1.4.2.4 0 .9-.4 1.1-5 2.4-10.4 3.6-15.9 3.6zm20.8-6.5c-.3 0-.5-.1-.7-.4-.3-.4-.2-.9.2-1.2 1.7-1.2 3.3-2.5 4.7-4 6.2-6.2 9.9-14.4 10.3-23.1 0-.5.4-.8.9-.8s.8.4.8.9c-.5 9.1-4.3 17.7-10.8 24.2-1.5 1.5-3.2 2.9-4.9 4.1-.1.2-.3.3-.5.3z"/><path class="st1" d="M657 134.4c-15.8 0-28.6-12.8-28.6-28.6s12.8-28.6 28.6-28.6 28.6 12.8 28.6 28.6-12.8 28.6-28.6 28.6zm0-55.6c-14.9 0-27 12.1-27 27s12.1 27 27 27 27-12.1 27-27-12.1-27-27-27z"/><path class="st1" d="M657 134.4c-7 0-13.3-6.7-16-17.2-.1-.4.1-.9.6-1 .4-.1.9.1 1 .6 2.6 9.7 8.2 16 14.4 16 8.7 0 15.8-12.1 15.8-27 0-1.1 0-2.3-.1-3.4 0-.5.3-.9.8-.9s.9.3.9.8c.1 1.2.1 2.4.1 3.5-.1 15.7-7.9 28.6-17.5 28.6zm-16.5-24.6c-.4 0-.8-.3-.8-.8-.1-1.1-.1-2.1-.1-3.2 0-15.8 7.8-28.6 17.4-28.6 7 0 13.3 6.8 16 17.3.1.4-.1.9-.6 1-.4.1-.9-.1-1-.6-2.6-9.7-8.2-16-14.4-16-8.7 0-15.8 12.1-15.8 27 0 1.1 0 2.1.1 3.1 0 .3-.3.7-.8.8z"/><path class="st1" d="M657 134.4c-.5 0-.8-.4-.8-.8v-6.4c0-.5.4-.8.8-.8.5 0 .8.4.8.8v6.4c0 .4-.3.8-.8.8zm0-14.1c-.5 0-.8-.4-.8-.8V78c0-.5.4-.8.8-.8.5 0 .8.4.8.8v41.5c0 .4-.3.8-.8.8zm26.4-21.1h-6.6c-.5 0-.8-.4-.8-.8 0-.5.4-.8.8-.8h6.6c.5 0 .8.4.8.8 0 .5-.3.8-.8.8z"/><path class="st1" d="M669.1 99.2h-38.5c-.5 0-.8-.4-.8-.8 0-.5.4-.8.8-.8h38.5c.5 0 .8.4.8.8 0 .5-.4.8-.8.8zm14.3 14.7h-38.6c-.5 0-.8-.4-.8-.8 0-.5.4-.8.8-.8h38.6c.5 0 .8.4.8.8s-.3.8-.8.8zm-46.3 0h-6.5c-.5 0-.8-.4-.8-.8 0-.5.4-.8.8-.8h6.5c.5 0 .8.4.8.8s-.4.8-.8.8z"/><path class="st1" d="M672.9 103.1c-2.6 0-4.7-2.1-4.7-4.7s2.1-4.7 4.7-4.7 4.7 2.1 4.7 4.7-2.1 4.7-4.7 4.7zm0-7.7c-1.7 0-3 1.4-3 3 0 1.7 1.4 3 3 3 1.7 0 3-1.4 3-3 .1-1.7-1.3-3-3-3zm-32 22.4c-2.6 0-4.7-2.1-4.7-4.7s2.1-4.7 4.7-4.7 4.7 2.1 4.7 4.7-2.1 4.7-4.7 4.7zm0-7.8c-1.7 0-3 1.4-3 3 0 1.7 1.4 3 3 3 1.7 0 3-1.4 3-3 .1-1.6-1.3-3-3-3zm16.1 18c-2.6 0-4.7-2.1-4.7-4.7s2.1-4.7 4.7-4.7 4.7 2.1 4.7 4.7-2.1 4.7-4.7 4.7zm0-7.7c-1.7 0-3 1.4-3 3 0 1.7 1.4 3 3 3s3-1.4 3-3c0-1.7-1.3-3-3-3zm1244.6-7c-7.6 0-13.7-6.2-13.7-13.7 0-7.6 6.2-13.7 13.7-13.7 7.6 0 13.7 6.2 13.7 13.7.1 7.6-6.1 13.7-13.7 13.7zm0-25.9c-6.7 0-12.1 5.4-12.1 12.1 0 6.7 5.4 12.1 12.1 12.1 6.7 0 12.1-5.4 12.1-12.1.1-6.6-5.4-12.1-12.1-12.1zm3.5-8.6c-3.8 0-6.9-3.1-6.9-6.9 0-3.8 3.1-6.9 6.9-6.9 3.8 0 6.9 3.1 6.9 6.9 0 3.8-3.1 6.9-6.9 6.9zm0-12.2c-2.9 0-5.3 2.4-5.3 5.3s2.4 5.3 5.3 5.3 5.3-2.4 5.3-5.3-2.4-5.3-5.3-5.3zm29.9 25.6c-3.8 0-6.9-3.1-6.9-6.9 0-3.8 3.1-6.9 6.9-6.9 3.8 0 6.9 3.1 6.9 6.9 0 3.8-3.1 6.9-6.9 6.9zm0-12.2c-2.9 0-5.3 2.4-5.3 5.3s2.4 5.3 5.3 5.3 5.3-2.4 5.3-5.3c0-3-2.3-5.3-5.3-5.3zm-8.4 49.6c-3.8 0-6.9-3.1-6.9-6.9 0-3.8 3.1-6.9 6.9-6.9s6.9 3.1 6.9 6.9c0 3.8-3.1 6.9-6.9 6.9zm0-12.2c-2.9 0-5.3 2.4-5.3 5.3s2.4 5.3 5.3 5.3 5.3-2.4 5.3-5.3-2.4-5.3-5.3-5.3zm-52.8 9.3c-3.8 0-6.9-3.1-6.9-6.9s3.1-6.9 6.9-6.9c3.8 0 6.9 3.1 6.9 6.9s-3.1 6.9-6.9 6.9zm0-12.2c-2.9 0-5.3 2.4-5.3 5.3s2.4 5.3 5.3 5.3 5.3-2.4 5.3-5.3-2.3-5.3-5.3-5.3zm4.3-16.8c-3.8 0-6.9-3.1-6.9-6.9 0-3.8 3.1-6.9 6.9-6.9s6.9 3.1 6.9 6.9c0 3.8-3.1 6.9-6.9 6.9zm0-12.2c-2.9 0-5.3 2.4-5.3 5.3s2.4 5.3 5.3 5.3 5.3-2.4 5.3-5.3-2.4-5.3-5.3-5.3z"/><path class="st1" d="M1903.2 87.4c-.1 0-.1 0 0 0-.5-.1-.9-.5-.8-.9l1-8.6c.1-.4.5-.8.9-.7.4.1.8.5.7.9l-1 8.6c-.1.4-.4.7-.8.7zm10.4 8c-.3 0-.6-.2-.7-.5-.2-.4 0-.9.4-1.1l16-6.7c.4-.2.9 0 1.1.4.2.4 0 .9-.4 1.1l-16 6.7c-.2.1-.3.1-.4.1zm8.5 24c-.2 0-.4-.1-.5-.2l-10.9-9.9c-.3-.3-.4-.8-.1-1.1.3-.3.8-.4 1.1-.1l10.9 9.9c.3.3.4.8.1 1.1-.2.2-.4.3-.6.3zm-32.9-23.1c-.1 0-.2 0-.3-.1l-5.5-2.1c-.4-.2-.6-.6-.5-1 .2-.4.6-.6 1-.5l5.5 2.1c.4.2.6.6.5 1-.1.4-.4.6-.7.6zm-10.2 21.1c-.2 0-.5-.1-.6-.3-.3-.4-.2-.9.2-1.1l12.2-9.3c.4-.3.9-.2 1.1.2.3.4.2.9-.2 1.1l-12.2 9.3c-.1.1-.3.1-.5.1zm20 13c-2.5 0-4.6-2-4.6-4.6 0-2.5 2-4.6 4.6-4.6 2.5 0 4.6 2 4.6 4.6-.1 2.6-2.1 4.6-4.6 4.6zm0-7.5c-1.6 0-2.9 1.3-2.9 2.9 0 1.6 1.3 2.9 2.9 2.9s2.9-1.3 2.9-2.9c0-1.5-1.3-2.9-2.9-2.9z"/><path class="st1" d="M1899.3 122.9c-.5 0-.8-.4-.8-.9l.2-1.6c0-.4.4-.8.9-.7.4 0 .8.4.7.9l-.2 1.6c0 .4-.4.7-.8.7zm.7-6.4s-.1 0 0 0c-.5 0-.8-.4-.8-.9l.3-3.2c0-.4.4-.8.9-.7.4 0 .8.4.7.9l-.3 3.2c-.1.4-.4.7-.8.7zm23.4-6c-.5 0-1.1-.1-1.6-.3-2.3-.9-3.5-3.5-2.6-5.9s3.5-3.5 5.9-2.6c2.3.9 3.5 3.5 2.6 5.9-.8 1.8-2.5 2.9-4.3 2.9zm0-7.5c-1.2 0-2.3.7-2.8 1.9-.6 1.5.2 3.2 1.7 3.8 1.5.6 3.2-.2 3.8-1.7.6-1.5-.2-3.2-1.7-3.8-.3-.2-.7-.2-1-.2z"/><path class="st1" d="M1919.6 105.6h-.2l-5.6-1.6c-.4-.1-.7-.6-.5-1 .1-.4.6-.7 1-.5l5.6 1.6c.4.1.7.6.5 1-.1.3-.4.5-.8.5zm-42.5-30.3c-1.2 0-2.3-.4-3.2-1.3-1.8-1.8-1.8-4.7 0-6.4 1.8-1.8 4.7-1.8 6.4 0 1.8 1.8 1.8 4.7 0 6.4-.9.8-2.1 1.3-3.2 1.3zm-2.1-2.5c1.1 1.1 3 1.1 4.2 0 1.1-1.1 1.1-3 0-4.2-1.1-1.1-3-1.1-4.2 0-1.2 1.2-1.2 3.1 0 4.2z"/><path class="st1" d="M1893.5 90.3c-.2 0-.5-.1-.6-.3l-2.1-2.4c-.3-.3-.3-.8.1-1.1.3-.3.8-.3 1.1.1l2.1 2.4c.3.3.3.8-.1 1.1-.1.1-.3.2-.5.2zm-5.2-6.1c-.2 0-.5-.1-.6-.3l-8.6-10c-.3-.3-.2-.8.1-1.1.3-.3.8-.3 1.1.1l8.6 10c.3.3.2.8-.1 1.1-.1.1-.3.2-.5.2zM545.4 288.7c-.2 0-.4-.1-.6-.2l-3.8-3.9-2.4 2.4c-1.5 1.6-4 1.6-5.6 0-1.5-1.6-1.5-4.1 0-5.7l22.1-22.6c-2.4-4.9-1.5-11 2.3-14.9 2.4-2.4 5.6-3.8 8.9-3.8 3.4 0 6.5 1.3 8.9 3.8s3.7 5.7 3.7 9.1c0 3.4-1.3 6.7-3.7 9.1-3.9 3.9-9.8 4.9-14.6 2.4l-9.2 9.4 5.1 5.2c.3.3.3.8 0 1.2l-3.4 3.5c-.3.3-.8.3-1.1 0l-5.1-5.2-1.5 1.5 3.8 3.9c.3.3.3.8 0 1.2l-3.4 3.5c.1 0-.2.1-.4.1zm-4.3-6.1c.2 0 .4.1.6.2l3.8 3.9 2.3-2.3-3.8-3.9c-.3-.3-.3-.8 0-1.2l2.6-2.6c.3-.3.8-.3 1.1 0l5.1 5.2 2.3-2.3-5.1-5.2c-.3-.3-.3-.8 0-1.2l10.1-10.4c.3-.3.6-.3 1-.1 4.3 2.5 9.7 1.8 13.2-1.8 2.1-2.1 3.2-5 3.2-8s-1.1-5.8-3.2-8c-2.1-2.1-4.9-3.3-7.8-3.3-2.9 0-5.7 1.2-7.8 3.3-3.5 3.6-4.2 9.1-1.8 13.5.2.3.1.7-.1 1l-22.5 23c-.9.9-.9 2.5 0 3.4.9.9 2.4.9 3.3 0l2.9-3c.2-.1.4-.2.6-.2zm27.5-26.3c-1.4 0-2.8-.5-3.8-1.6-1-1-1.6-2.4-1.6-3.9s.6-2.9 1.6-3.9c2.1-2.2 5.6-2.2 7.7 0s2.1 5.7 0 7.9c-1.2 1-2.5 1.5-3.9 1.5zm0-9.5c-1 0-2 .4-2.7 1.1-.7.7-1.1 1.7-1.1 2.8 0 1 .4 2 1.1 2.8 1.5 1.5 3.9 1.5 5.4 0 1.5-1.5 1.5-4 0-5.5-.8-.8-1.8-1.2-2.7-1.2zm-46.9 23.1c-3.4 0-6.5-1.3-8.9-3.8-2.4-2.4-3.7-5.7-3.7-9.1 0-3.4 1.3-6.7 3.7-9.1 3.9-3.9 9.8-4.9 14.6-2.4l9.2-9.4-5.1-5.2c-.3-.3-.3-.8 0-1.2l3.4-3.5c.3-.3.8-.3 1.1 0l5.1 5.2 1.5-1.5-3.8-3.9c-.1-.2-.2-.4-.2-.6s.1-.4.2-.6l3.4-3.5c.3-.3.8-.3 1.1 0l3.8 3.9 2.4-2.4c1.5-1.5 4.1-1.5 5.6 0 .7.8 1.2 1.8 1.2 2.8 0 1.1-.4 2.1-1.2 2.8L533 251.2c2.4 4.9 1.5 11-2.3 14.9-2.4 2.5-5.6 3.8-9 3.8zm0-24.1c-2.9 0-5.7 1.1-7.8 3.3-2.1 2.1-3.2 5-3.2 8s1.1 5.8 3.2 8c2.1 2.1 4.9 3.3 7.8 3.3 2.9 0 5.7-1.2 7.8-3.3 3.5-3.6 4.2-9.1 1.8-13.5-.2-.3-.1-.7.1-1l22.5-23c.4-.5.7-1.1.7-1.7 0-.6-.2-1.2-.7-1.7-.9-.9-2.4-.9-3.3 0l-2.9 3c-.3.3-.8.3-1.1 0l-3.8-3.9-2.3 2.3 3.8 3.9c.3.3.3.8 0 1.2l-2.6 2.6c-.3.3-.8.3-1.1 0l-5.1-5.2-2.3 2.3 5.1 5.2c.3.3.3.8 0 1.2l-10.1 10.4c-.3.3-.6.3-1 .1-1.7-1.1-3.6-1.5-5.5-1.5zm-2.1 18.9c-1.4 0-2.8-.5-3.8-1.6-1-1-1.6-2.4-1.6-3.9s.6-2.9 1.6-3.9c2.1-2.2 5.6-2.2 7.7 0 1 1 1.6 2.4 1.6 3.9s-.6 2.9-1.6 3.9c-1.1 1.1-2.5 1.6-3.9 1.6zm0-9.5c-1 0-2 .4-2.7 1.1-.7.7-1.1 1.7-1.1 2.8 0 1 .4 2 1.1 2.8 1.5 1.5 3.9 1.5 5.4 0 .7-.7 1.1-1.7 1.1-2.8 0-1-.4-2-1.1-2.8-.7-.7-1.7-1.1-2.7-1.1zm785.1-120.4h-13c-.5 0-.9-.4-.9-.9s.4-.9.9-.9h12V70h-47.8v5.8c0 .5-.4.9-.9.9s-.9-.4-.9-.9V69c0-.5.4-.9.9-.9h49.6c.5 0 .9.4.9.9v64.8c.1.6-.3 1-.8 1z"/><path class="st1" d="M1283.3 143.3h-37c-.5 0-.9-.4-.9-.9V77.6c0-.5.4-.9.9-.9h49.6c.5 0 .9.4.9.9v52.3c0 .5-.4.9-.9.9h-11.6v11.6c-.1.5-.5.9-1 .9zm-36.1-1.9h35.2v-11.6c0-.5.4-.9.9-.9h11.6V78.5h-47.8v62.9z"/><path class="st1" d="M1283.3 143.3c-.1 0-.2 0-.4-.1-.3-.1-.6-.5-.6-.8v-12.5c0-.5.4-.9.9-.9h12.5c.4 0 .7.2.8.6.1.3.1.7-.2 1L1284 143c-.2.2-.5.3-.7.3zm.9-12.6v9.4l9.4-9.4h-9.4zm1.8-38.1h-29.9c-.5 0-.9-.4-.9-.9s.4-.9.9-.9h29.9c.5 0 .9.4.9.9s-.4.9-.9.9zm0 10.1h-29.9c-.5 0-.9-.4-.9-.9s.4-.9.9-.9h29.9c.5 0 .9.4.9.9s-.4.9-.9.9zm0 10.1h-29.9c-.5 0-.9-.4-.9-.9s.4-.9.9-.9h29.9c.5 0 .9.4.9.9s-.4.9-.9.9zm-24.1 23.2a6.7 6.7 0 1 1 6.7-6.7c-.1 3.7-3 6.7-6.7 6.7zm0-11.6c-2.7 0-4.8 2.2-4.8 4.8 0 2.7 2.2 4.8 4.8 4.8 2.7 0 4.8-2.2 4.8-4.8 0-2.6-2.2-4.8-4.8-4.8zm214.7 145.2h-35.2c-2.8 0-5-2.3-5-5v-58.4c0-2.8 2.3-5 5-5h40.7c2.8 0 5 2.3 5 5v9.3c0 .5-.4 1-1 1-.5 0-1-.4-1-1v-9.3c0-1.7-1.4-3.1-3.1-3.1h-40.7c-1.7 0-3.1 1.4-3.1 3.1v58.4c0 1.7 1.4 3.1 3.1 3.1h35.2c.5 0 1 .4 1 1s-.4.9-.9.9z"/><path class="st1" d="M1476.6 262.2h-39.2c-.5 0-1-.4-1-1s.4-1 1-1h39.2c.5 0 1 .4 1 1s-.5 1-1 1zm9.6-54.2h-48.9c-.5 0-1-.4-1-1s.4-1 1-1h48.9c.5 0 1 .4 1 1s-.5 1-1 1zm-22.1 58h-4.8c-.5 0-1-.4-1-1 0-.5.4-1 1-1h4.8c.5 0 1 .4 1 1s-.4 1-1 1zm41.3 3.6h-20.8c-2.2 0-3.9-1.8-3.9-3.9v-42.6c0-2.2 1.8-3.9 3.9-3.9h20.8c2.2 0 3.9 1.8 3.9 3.9v42.6c.1 2.1-1.7 3.9-3.9 3.9zm-20.8-48.5c-1.1 0-2 .9-2 2v42.6c0 1.1.9 2 2 2h20.8c1.1 0 2-.9 2-2v-42.6c0-1.1-.9-2-2-2h-20.8z"/><path class="st1" d="M1508.4 224.7h-26.7c-.5 0-1-.4-1-1 0-.5.4-1 1-1h26.7c.5 0 1 .4 1 1s-.5 1-1 1zm-31.8-2h-29.3c-.5 0-1-.4-1-1 0-.5.4-1 1-1h29.3c.5 0 1 .4 1 1-.1.6-.5 1-1 1zm0 8.6h-29.3c-.5 0-1-.4-1-1 0-.5.4-1 1-1h29.3c.5 0 1 .4 1 1-.1.6-.5 1-1 1zm0 8.6h-29.3c-.5 0-1-.4-1-1 0-.5.4-1 1-1h29.3c.5 0 1 .4 1 1-.1.6-.5 1-1 1zm0 8.6h-29.3c-.5 0-1-.4-1-1s.4-1 1-1h29.3c.5 0 1 .4 1 1s-.5 1-1 1zm25.7-16h-14.5c-.5 0-1-.4-1-1s.4-1 1-1h14.5c.5 0 1 .4 1 1s-.5 1-1 1zm0 7.9h-14.5c-.5 0-1-.4-1-1 0-.5.4-1 1-1h14.5c.5 0 1 .4 1 1-.1.6-.5 1-1 1zm0 8h-14.5c-.5 0-1-.4-1-1 0-.5.4-1 1-1h14.5c.5 0 1 .4 1 1-.1.5-.5 1-1 1zm0 7.9h-14.5c-.5 0-1-.4-1-1 0-.5.4-1 1-1h14.5c.5 0 1 .4 1 1-.1.6-.5 1-1 1zm6.1 5.9h-26.2c-.5 0-1-.4-1-1s.4-1 1-1h26.2c.5 0 1 .4 1 1s-.5 1-1 1zm-11.5 3.8h-3.8c-.5 0-1-.4-1-1 0-.5.4-1 1-1h3.8c.5 0 1 .4 1 1s-.5 1-1 1zm415.5 129.5c-1.6 0-3.2-.3-4.7-1.1-.2-.1-.4-.3-.5-.6 0-.3 0-.5.2-.7l6.3-6.4c.5-.5.5-1.2 0-1.6l-2.7-2.9c-.2-.2-.5-.3-.7-.3-.3 0-.7.1-.9.4l-6.4 6.4c-.2.2-.5.3-.7.2-.3 0-.5-.2-.6-.5-1.8-4.2-.9-8.9 2.3-12.2 3.1-3.1 7.9-4.2 11.9-2.8l6.7-6.7c.3-.3.8-.3 1.1 0 .3.3.3.8 0 1.1l-7.1 7.1c-.2.2-.6.3-.9.2-3.5-1.5-7.9-.6-10.6 2.2-2.5 2.5-3.3 6-2.4 9.3l5.5-5.5c.6-.6 1.3-.9 2.1-.9.7 0 1.3.3 1.8.8l2.7 2.9c1.1 1.1 1 2.8-.1 3.9l-5.5 5.5c3.3 1.1 6.8.3 9.4-2.3 2.7-2.7 3.6-7.3 2.1-10.8-.1-.3-.1-.7.2-.9l4.6-4.6c.3-.3.8-.3 1.1 0 .3.3.3.8 0 1.1l-4.3 4.3c1.5 4.1.4 9-2.7 12.1-1.7 2.2-4.4 3.3-7.2 3.3zm26.7-32c-.2 0-.4-.1-.6-.2-.3-.3-.3-.8 0-1.1l4.6-4.6c.2-.2.6-.3.9-.2 3.5 1.5 7.9.6 10.6-2.2 2.5-2.5 3.3-6 2.4-9.3l-5.5 5.5c-.5.5-1.2.8-1.9.8s-1.4-.3-2-.8l-2.7-2.7c-1.1-1.1-1.1-2.8 0-3.9l5.5-5.5c-3.3-1.1-6.8-.3-9.4 2.3-2.7 2.7-3.6 7.3-2.1 10.8.1.3.1.7-.2.9l-6.9 6.9c-.3.3-.8.3-1.1 0-.3-.3-.3-.8 0-1.1l6.6-6.6c-1.5-4.1-.4-9 2.7-12.1 3.3-3.3 8.1-4.1 12.3-2.2.2.1.4.3.5.6 0 .3 0 .5-.2.7l-6.4 6.4c-.5.5-.5 1.1 0 1.6l2.7 2.7c.4.4 1.2.4 1.6 0l6.4-6.4c.2-.2.5-.3.7-.2.3 0 .5.2.6.5 1.8 4.2.9 8.9-2.3 12.2-3.1 3.1-7.9 4.2-11.9 2.8l-4.2 4.2c-.3.2-.5.2-.7.2zm-9.7 6c-.2 0-.4-.1-.6-.2l-19.9-19.9-.7.7c-.2.2-.4.3-.6.2-.2 0-.4-.1-.6-.3l-5.7-7.3c-.3-.3-.2-.8.1-1.1l3.9-3.9c.3-.3.8-.3 1.1-.1l7.3 5.7c.2.1.3.4.3.6 0 .2-.1.5-.2.6l-.7.7 19.9 19.9c.3.3.3.8 0 1.1-.3.3-.8.3-1.1 0l-20.5-20.5c-.3-.3-.3-.8 0-1.1l.7-.7-6-4.7-2.9 2.9 4.7 6 .7-.7c.3-.3.8-.3 1.1 0l20.5 20.5c.3.3.3.8 0 1.1-.3.4-.6.5-.8.5z"/><path class="st1" d="M1952.6 396.4c-.9 0-1.8-.4-2.5-1l-21.7-21.7c-.1-.1-.2-.3-.2-.4l-.5-3.4c0-.3 0-.5.2-.7l4.9-4.9c.2-.2.4-.3.7-.2l3.4.5c.2 0 .3.1.5.2l21.7 21.7c1.4 1.4 1.4 3.7 0 5.1l-3.8 3.8c-.9.7-1.8 1-2.7 1zm-22.9-23.7l21.5 21.5c.8.8 2 .8 2.8 0l3.8-3.8c.8-.8.8-2 0-2.8l-21.5-21.5-2.7-.4-4.3 4.3.4 2.7z"/><path class="st1" d="M1953.1 388c-.2 0-.4-.1-.6-.2l-14.7-14.7c-.3-.3-.3-.8 0-1.1.3-.3.8-.3 1.1 0l14.7 14.7c.3.3.3.8 0 1.1-.1.2-.3.2-.5.2zm-2.3 2.3c-.2 0-.4-.1-.6-.2l-14.7-14.7c-.3-.3-.3-.8 0-1.1.3-.3.8-.3 1.1 0l14.7 14.7c.3.3.3.8 0 1.1-.1.1-.3.2-.5.2zM416.1 127.1c-8.2 0-14.8-7-14.8-15.5s6.6-15.5 14.8-15.5 14.8 7 14.8 15.5-6.7 15.5-14.8 15.5zm0-29.2c-7.2 0-13 6.2-13 13.7 0 7.6 5.8 13.7 13 13.7s13-6.2 13-13.7c0-7.6-5.9-13.7-13-13.7zm0 21.9c-4.1 0-7.5-3.7-7.5-8.2 0-4.5 3.4-8.2 7.5-8.2s7.5 3.7 7.5 8.2c0 4.5-3.4 8.2-7.5 8.2zm0-14.7c-3.2 0-5.7 2.9-5.7 6.5s2.6 6.5 5.7 6.5c3.2 0 5.7-2.9 5.7-6.5s-2.6-6.5-5.7-6.5z"/><path class="st1" d="M416.1 130.8c-15.1 0-28.7-7-35.5-18.2l-.3-.5c-.2-.3-.2-.6 0-.9l.3-.5c6.8-11.2 20.4-18.2 35.5-18.2 15.1 0 28.7 7 35.5 18.2l.3.5c.2.3.2.6 0 .9l-.3.5c-6.8 11.2-20.4 18.2-35.5 18.2zm-34-19.2c6.5 10.7 19.5 17.4 34 17.4s27.5-6.7 34-17.4c-6.5-10.7-19.5-17.4-34-17.4s-27.5 6.7-34 17.4zm69-10.8c-.3 0-.6-.2-.8-.4l-.3-.5c-6.5-10.7-19.5-17.4-34-17.4s-27.5 6.7-34 17.4l-.3.5c-.3.4-.8.6-1.2.3-.4-.3-.6-.8-.3-1.2l.3-.5c6.8-11.2 20.4-18.2 35.5-18.2 15.1 0 28.7 7 35.5 18.2l.3.5c.3.4.1 1-.3 1.2-.1 0-.2.1-.4.1zm-22.2 312.1c-.5 0-.9-.4-.9-.9 0-3.5-3.2-6.3-7.1-6.3s-7.1 2.8-7.1 6.3c0 .5-.4.9-.9.9s-.9-.4-.9-.9c0-4.4 4-8.1 8.9-8.1s8.9 3.6 8.9 8.1c0 .5-.4.9-.9.9z"/><path class="st1" d="M412.9 412.9c-.5 0-.9-.4-.9-.9 0-6.6-6-12-13.5-12-7.4 0-13.5 5.4-13.5 12 0 .5-.4.9-.9.9s-.9-.4-.9-.9c0-7.6 6.8-13.8 15.2-13.8 8.4 0 15.2 6.2 15.2 13.8.2.5-.2.9-.7.9zm44.7 0c-.5 0-.9-.4-.9-.9 0-6.6-6-12-13.5-12-7.4 0-13.5 5.4-13.5 12 0 .5-.4.9-.9.9s-.9-.4-.9-.9c0-7.6 6.8-13.8 15.2-13.8 8.4 0 15.2 6.2 15.2 13.8.2.5-.2.9-.7.9zm-26.8-26.5h-19.7c-.5 0-.9-.4-.9-.9v-29.8c0-5.8 9.7-14.3 10.2-14.7.3-.3.8-.3 1.2 0 .4.4 10.2 8.9 10.2 14.7v29.8c-.2.5-.6.9-1 .9zm-18.9-1.8h17.9v-29c0-3.9-6-10.1-9-12.8-3 2.7-9 9-9 12.8v29z"/><path class="st1" d="M402.1 392.7c-.1 0-.3 0-.4-.1-.3-.1-.5-.5-.5-.8v-12.6c0-.3.1-.5.4-.7l8.9-6.5c.3-.2.6-.2.9-.1.3.1.5.5.5.8v12.6c0 .3-.1.5-.4.7l-8.9 6.5c-.1.1-.3.2-.5.2zm.9-13v10.4l7.2-5.2v-10.4l-7.2 5.2zm36.7 13c-.2 0-.4-.1-.5-.2l-8.9-6.5c-.2-.2-.4-.4-.4-.7v-12.6c0-.3.2-.6.5-.8.3-.2.6-.1.9.1l8.9 6.5c.2.2.4.4.4.7v12.6c0 .3-.2.6-.5.8-.1.1-.3.1-.4.1zm-8-7.8l7.2 5.2v-10.4l-7.2-5.2v10.4zm-17.1 10.5c-.5 0-.9-.4-.9-.9v-8c0-.5.4-.9.9-.9s.9.4.9.9v8c0 .5-.4.9-.9.9zm6.3 0c-.5 0-.9-.4-.9-.9v-8c0-.5.4-.9.9-.9s.9.4.9.9v8c0 .5-.4.9-.9.9zm6.3 0c-.5 0-.9-.4-.9-.9v-8c0-.5.4-.9.9-.9s.9.4.9.9v8c0 .5-.4.9-.9.9zm-12.6 6.3c-.5 0-.9-.4-.9-.9v-2.6c0-.5.4-.9.9-.9s.9.4.9.9v2.6c0 .5-.4.9-.9.9zm6.3 0c-.5 0-.9-.4-.9-.9v-2.6c0-.5.4-.9.9-.9s.9.4.9.9v2.6c0 .5-.4.9-.9.9zm6.3 0c-.5 0-.9-.4-.9-.9v-2.6c0-.5.4-.9.9-.9s.9.4.9.9v2.6c0 .5-.4.9-.9.9zm-6.3-36.3c-3.3 0-5.9-2.7-5.9-5.9 0-3.3 2.7-5.9 5.9-5.9 3.3 0 5.9 2.7 5.9 5.9 0 3.3-2.6 5.9-5.9 5.9zm0-10c-2.3 0-4.2 1.9-4.2 4.2 0 2.3 1.9 4.2 4.2 4.2s4.2-1.9 4.2-4.2c0-2.4-1.9-4.2-4.2-4.2zm31.9 34.7c-.5 0-.9-.4-.9-.9v-6.5c0-.5.4-.9.9-.9s.9.4.9.9v6.5c0 .5-.4.9-.9.9z"/><path class="st1" d="M456 386.9h-6.5c-.5 0-.9-.4-.9-.9s.4-.9.9-.9h6.5c.5 0 .9.4.9.9s-.4.9-.9.9zM394.7 369c-.5 0-.9-.4-.9-.9v-6.5c0-.5.4-.9.9-.9s.9.4.9.9v6.5c0 .5-.4.9-.9.9z"/><path class="st1" d="M398 365.7h-6.5c-.5 0-.9-.4-.9-.9s.4-.9.9-.9h6.5c.5 0 .9.4.9.9-.1.5-.5.9-.9.9zm-17.4 29.7c-.5 0-.9-.4-.9-.9V388c0-.5.4-.9.9-.9s.9.4.9.9v6.5c0 .5-.4.9-.9.9z"/><path class="st1" d="M383.9 392.1h-6.5c-.5 0-.9-.4-.9-.9s.4-.9.9-.9h6.5c.5 0 .9.4.9.9s-.4.9-.9.9zM1157.4 267h-57.7c-1.3 0-2.4-1.1-2.4-2.4V223c0-1.3 1.1-2.4 2.4-2.4h57.7c1.3 0 2.4 1.1 2.4 2.4v14.6c0 .5-.4.9-.9.9s-.9-.4-.9-.9V223c0-.3-.2-.5-.5-.5h-57.7c-.3 0-.5.2-.5.5v41.7c0 .3.2.5.5.5h57.7c.3 0 .5-.2.5-.5V250c0-.5.4-.9.9-.9s.9.4.9.9v14.6c0 1.4-1 2.4-2.4 2.4zm-3.2-47.7c-.5 0-.9-.4-.9-.9v-3.2c0-.3-.2-.5-.5-.5h-47.5c-.3 0-.5.2-.5.5v3.2c0 .5-.4.9-.9.9s-.9-.4-.9-.9v-3.2c0-1.3 1.1-2.4 2.4-2.4h47.5c1.3 0 2.4 1.1 2.4 2.4v3.2c-.1.5-.6.9-1.1.9z"/><path class="st1" d="M1105.6 214.6c-.4 0-.8-.3-.9-.8-.1-.5.3-1 .8-1.1l43.3-7.3c.6-.1 1.3 0 1.8.4s.9.9 1 1.5l.3 1.9c.1.5-.2 1-.8 1.1-.5.1-1-.2-1.1-.8l-.3-1.9c0-.1-.1-.3-.2-.3-.1-.1-.3-.1-.4-.1l-43.3 7.3c-.1.1-.2.1-.2.1zm57.2 36.3h-13.9c-1.4 0-2.5-1-2.5-2.3V239c0-1.3 1.1-2.3 2.5-2.3h13.9c1.4 0 2.5 1 2.5 2.3v9.6c0 1.3-1.1 2.3-2.5 2.3zm-13.9-12.3c-.3 0-.6.2-.6.4v9.6c0 .2.3.4.6.4h13.9c.3 0 .6-.2.6-.4V239c0-.2-.3-.4-.6-.4h-13.9z"/><path class="st1" d="M1154.2 247.4c-.5 0-.9-.4-.9-.9v-4.8c0-.5.4-.9.9-.9s.9.4.9.9v4.8c.1.5-.4.9-.9.9z"/><path class="st1" d="M1156.6 245h-4.8c-.5 0-.9-.4-.9-.9s.4-.9.9-.9h4.8c.5 0 .9.4.9.9.1.5-.3.9-.9.9zm605.5-31.4h-.3l-29.1-8.9c-.4-.1-.6-.5-.6-.8s.3-.7.6-.8l29.1-8.9c.2-.1.3-.1.5 0l29.1 8.9c.4.1.6.5.6.8s-.3.7-.6.8l-29.1 8.9h-.2zm-26.1-9.8l26.2 8 26.2-8-26.2-8-26.2 8zm26.1 53.1h-.3l-29.1-8.9c-.4-.1-.6-.5-.6-.8 0-.4.3-.7.6-.8l29.1-8.9c.2-.1.3-.1.5 0l29.1 8.9c.4.1.6.5.6.8 0 .4-.3.7-.6.8l-29.1 8.9h-.2zm-26.1-9.8l26.2 8 26.2-8-26.2-8-26.2 8z"/><path class="st1" d="M1762.1 256.9c-.5 0-.9-.4-.9-.9v-43.3c0-.5.4-.9.9-.9s.9.4.9.9V256c0 .5-.4.9-.9.9zm29.2-9c-.5 0-.9-.4-.9-.9v-43.2c0-.5.4-.9.9-.9s.9.4.9.9V247c-.1.6-.4.9-.9.9zm-58.3 0c-.5 0-.9-.4-.9-.9v-43.2c0-.5.4-.9.9-.9s.9.4.9.9V247c0 .6-.4.9-.9.9zM278.6 282.3h-11.7c-.5 0-.9-.4-.9-.9v-35.1c0-.5.4-.9.9-.9h6.4c.5 0 .9.4.9.9s-.4.9-.9.9h-5.5v33.2h10.8c.5 0 .9.4.9.9.1.6-.4 1-.9 1zm41.4 0h-5.9c-.5 0-.9-.4-.9-.9s.4-.9.9-.9h4.9v-33.2h-4.9c-.5 0-.9-.4-.9-.9s.4-.9.9-.9h5.9c.5 0 .9.4.9.9v35.1c.1.4-.3.8-.9.8zm-31.3-50.8c-2.1 0-3.8-1.7-3.8-3.8 0-2.1 1.7-3.8 3.8-3.8 2.1 0 3.8 1.7 3.8 3.8 0 2.1-1.7 3.8-3.8 3.8zm0-5.7c-1 0-1.9.8-1.9 1.9 0 1 .8 1.9 1.9 1.9 1 0 1.9-.8 1.9-1.9 0-1-.8-1.9-1.9-1.9zm-14.1 3.3c-2.1 0-3.8-1.7-3.8-3.8 0-2.1 1.7-3.8 3.8-3.8s3.8 1.7 3.8 3.8c0 2.1-1.7 3.8-3.8 3.8zm0-5.7c-1 0-1.9.8-1.9 1.9 0 1 .8 1.9 1.9 1.9 1 0 1.9-.8 1.9-1.9 0-1-.8-1.9-1.9-1.9zm27.9 2.1c-2.1 0-3.8-1.7-3.8-3.8 0-2.1 1.7-3.8 3.8-3.8 2.1 0 3.8 1.7 3.8 3.8 0 2.1-1.7 3.8-3.8 3.8zm0-5.7c-1 0-1.9.8-1.9 1.9 0 1 .8 1.9 1.9 1.9 1 0 1.9-.8 1.9-1.9 0-1-.8-1.9-1.9-1.9zm8.9 12.7c-2.1 0-3.8-1.7-3.8-3.8s1.7-3.8 3.8-3.8c2.1 0 3.8 1.7 3.8 3.8s-1.8 3.8-3.8 3.8zm0-5.7c-1 0-1.9.8-1.9 1.9 0 1 .8 1.9 1.9 1.9 1 0 1.9-.8 1.9-1.9-.1-1-.9-1.9-1.9-1.9z"/><path class="st1" d="M302.5 227.8c-.5 0-.9-.4-.9-.9v-2.1c0-.5.4-.9.9-.9s.9.4.9.9v2.1c.1.5-.4.9-.9.9zm-27.9 8.2c-.5 0-.9-.4-.9-.9v-6.7c0-.5.4-.9.9-.9s.9.4.9.9v6.7c.1.5-.3.9-.9.9zm34.2 50.8c-.5 0-.9-.4-.9-.9v-20c0-1.1-.9-2.1-2.1-2.1-1.1 0-2.1.9-2.1 2.1 0 .5-.4.9-.9.9s-.9-.4-.9-.9v-1c0-1.1-.9-2.1-2.1-2.1-1.1 0-2.1.9-2.1 2.1v1c0 .5-.4.9-.9.9s-.9-.4-.9-.9v-2.2c0-1.1-.9-2.1-2.1-2.1-1.1 0-2.1.9-2.1 2.1v2.2c0 .5-.4.9-.9.9s-.9-.4-.9-.9v-12.2c0-1.1-.9-2.1-2.1-2.1-1.1 0-2.1.9-2.1 2.1v15.6l1.3 2.9c.2.4 0 1-.4 1.2-.4.2-1 .1-1.2-.3l-2.6-4.1c-.3-.5-.8-.8-1.3-.9-.5-.1-1.1 0-1.6.3s-.8.8-.9 1.3c-.1.5 0 1.1.3 1.6l5.9 9.2c.1.2.1.3.1.5v5c0 .5-.4.9-.9.9s-.9-.4-.9-.9v-4.8l-5.8-9c-.6-.9-.8-1.9-.5-3 .2-1 .8-1.9 1.7-2.5.9-.6 1.9-.8 3-.5.8.2 1.4.5 2 1.1v-13.6c0-2.2 1.8-3.9 3.9-3.9 2.2 0 3.9 1.8 3.9 3.9v6.7c.6-.4 1.3-.6 2.1-.6 1.5 0 2.8.8 3.5 2.1.7-.6 1.6-.9 2.5-.9 1.5 0 2.7.8 3.4 2 .7-.6 1.6-1 2.6-1 2.2 0 3.9 1.8 3.9 3.9v20c.1.5-.4.9-.9.9z"/><path class="st1" d="M310.3 296.1h-27.6c-.5 0-.9-.4-.9-.9v-9.3c0-.5.4-.9.9-.9h27.6c.5 0 .9.4.9.9v9.3c0 .5-.4.9-.9.9zm-26.7-1.9h25.7v-7.5h-25.7v7.5zm-4-38.9c-.5 0-.9-.4-.9-.9V243l-4.8-5.9c-.1-.2-.2-.4-.2-.6v-8.4c0-.5.4-.9.9-.9s.9.4.9.9v8l4.8 5.9c.1.2.2.4.2.6v11.7c.1.6-.4 1-.9 1zm26.8.2c-.5 0-.9-.4-.9-.9v-8.1c0-.2.1-.4.2-.6l4.8-5.9v-8.4c0-.5.4-.9.9-.9s.9.4.9.9v8.8c0 .2-.1.4-.2.6l-4.8 5.9v7.8c0 .4-.4.8-.9.8zm-8.8 1.1c-.5 0-.9-.4-.9-.9v-15.5c0-.2.1-.4.2-.6l4.8-5.9v-8.8c0-.5.4-.9.9-.9s.9.4.9.9v9.2c0 .2-.1.4-.2.6l-4.8 5.9v15.1c0 .5-.4.9-.9.9zm-8.9-10.4c-.5 0-.9-.4-.9-.9v-14.7c0-.5.4-.9.9-.9s.9.4.9.9v14.7c.1.4-.3.9-.9.9zm1757.7 298.2c-.2 0-.4-.1-.6-.2l-3.8-3.9-2.4 2.4c-1.5 1.6-4 1.6-5.6 0-1.5-1.6-1.5-4.1 0-5.7l22.1-22.6c-2.4-4.9-1.5-11 2.3-14.9 2.4-2.4 5.6-3.8 8.9-3.8 3.4 0 6.5 1.3 8.9 3.8 2.4 2.4 3.7 5.7 3.7 9.1s-1.3 6.7-3.7 9.1c-3.9 3.9-9.8 4.9-14.6 2.4l-9.2 9.4 5.1 5.2c.3.3.3.8 0 1.2l-3.4 3.5c-.3.3-.8.3-1.1 0l-5.1-5.2-1.5 1.5 3.8 3.9c.3.3.3.8 0 1.2l-3.4 3.5c.1 0-.2.1-.4.1zm-4.3-6.1c.2 0 .4.1.6.2l3.8 3.9 2.3-2.3-3.8-3.9c-.3-.3-.3-.8 0-1.2l2.6-2.6c.3-.3.8-.3 1.1 0l5.1 5.2 2.3-2.3-5.1-5.2c-.3-.3-.3-.8 0-1.2l10.1-10.4c.3-.3.6-.3 1-.1 4.3 2.5 9.7 1.8 13.2-1.8 2.1-2.1 3.2-5 3.2-8s-1.1-5.8-3.2-8c-2.1-2.1-4.9-3.3-7.8-3.3s-5.7 1.2-7.8 3.3c-3.5 3.6-4.2 9.1-1.8 13.5.2.3.1.7-.1 1l-22.5 23c-.9.9-.9 2.5 0 3.4.9.9 2.4.9 3.3 0l2.9-3c.2-.2.4-.2.6-.2zm27.5-26.3c-1.4 0-2.8-.5-3.8-1.6-1-1-1.6-2.4-1.6-3.9s.6-2.9 1.6-3.9c2.1-2.2 5.6-2.2 7.7 0s2.1 5.7 0 7.9c-1.2.9-2.5 1.5-3.9 1.5zm0-9.5c-1 0-2 .4-2.7 1.1-.7.7-1.1 1.7-1.1 2.8 0 1 .4 2 1.1 2.8 1.5 1.5 3.9 1.5 5.4 0 1.5-1.5 1.5-4 0-5.5-.8-.8-1.8-1.2-2.7-1.2zm-46.9 23.1c-3.4 0-6.5-1.3-8.9-3.8-2.4-2.4-3.7-5.7-3.7-9.1 0-3.4 1.3-6.7 3.7-9.1 3.9-3.9 9.8-4.9 14.6-2.4l9.2-9.4-5.1-5.2c-.3-.3-.3-.8 0-1.2l3.4-3.5c.3-.3.8-.3 1.1 0l5.1 5.2 1.5-1.5-3.8-3.9c-.1-.2-.2-.4-.2-.6s.1-.4.2-.6l3.4-3.5c.3-.3.8-.3 1.1 0l3.8 3.9 2.4-2.4c1.5-1.5 4.1-1.5 5.6 0 .7.8 1.2 1.8 1.2 2.8 0 1.1-.4 2.1-1.2 2.8l-22.1 22.6c2.4 4.9 1.5 11-2.3 14.9-2.4 2.6-5.6 4-9 4zm0-24.2c-2.9 0-5.7 1.1-7.8 3.3-2.1 2.1-3.2 5-3.2 8s1.1 5.8 3.2 8c2.1 2.1 4.9 3.3 7.8 3.3 2.9 0 5.7-1.2 7.8-3.3 3.5-3.6 4.2-9.1 1.8-13.5-.2-.3-.1-.7.1-1l22.5-23c.4-.5.7-1.1.7-1.7 0-.6-.2-1.2-.7-1.7-.9-.9-2.4-.9-3.3 0l-2.9 3c-.3.3-.8.3-1.1 0l-3.8-3.9-2.3 2.3 3.8 3.9c.3.3.3.8 0 1.2l-2.6 2.6c-.3.3-.8.3-1.1 0l-5.1-5.2-2.3 2.3 5.1 5.2c.3.3.3.8 0 1.2l-10.1 10.4c-.3.3-.6.3-1 .1-1.7-1-3.6-1.5-5.5-1.5zm-2.1 19c-1.4 0-2.8-.5-3.8-1.6-1-1-1.6-2.4-1.6-3.9s.6-2.9 1.6-3.9c2.1-2.2 5.6-2.2 7.7 0 1 1 1.6 2.4 1.6 3.9s-.6 2.9-1.6 3.9c-1.1 1-2.5 1.6-3.9 1.6zm0-9.5c-1 0-2 .4-2.7 1.1-.7.7-1.1 1.7-1.1 2.8 0 1 .4 2 1.1 2.8 1.5 1.5 3.9 1.5 5.4 0 .7-.7 1.1-1.7 1.1-2.8 0-1-.4-2-1.1-2.8-.7-.7-1.7-1.1-2.7-1.1zm-781.7 185.9h-7.5c-.5 0-.9-.4-.9-.9s.4-.9.9-.9h7.5c.5 0 .9.4.9.9s-.4.9-.9.9zm13.8 0h-5.8c-.5 0-.9-.4-.9-.9s.4-.9.9-.9h5.8c.5 0 .8-.4.8-.8v-18c0-.5.4-.9.9-.9s.9.4.9.9v18c.1 1.4-1.1 2.6-2.6 2.6z"/><path class="st1" d="M1280.8 686.7h-16c-.5 0-.9-.4-.9-.9V677h-8.6v8.7c0 .5-.4.9-.9.9h-16.1c-8.9-.4-15.9-7.7-15.9-16.6 0-8.7 6.6-15.8 15.2-16.6 2.6-8.3 10.3-14.1 19-14.1 9 0 16.9 6.1 19.2 14.7 1.6-.5 3.3-.8 4.9-.8 9.2 0 16.6 7.5 16.6 16.6.2 9.5-7.3 16.9-16.5 16.9zm-15.1-1.8h15.1c8.2 0 14.8-6.7 14.8-14.8 0-8.2-6.7-14.8-14.8-14.8-1.8 0-3.6.3-5.3 1-.2.1-.5.1-.7 0-.2-.1-.4-.3-.4-.6-1.8-8.3-9.2-14.3-17.7-14.3-8.1 0-15.3 5.5-17.5 13.4-.1.4-.4.6-.8.7-7.9.4-14.1 6.9-14.1 14.8s6.2 14.4 14.2 14.8h15.2v-8.7c0-.5.4-.9.9-.9h10.4c.5 0 .9.4.9.9v8.5z"/><path class="st1" d="M1244.9 656.5h-.2a.8.8 0 0 1-.6-1.1c1.5-5.6 6.7-9.5 12.5-9.5.5 0 .9.4.9.9s-.4.9-.9.9c-5 0-9.4 3.4-10.7 8.2-.2.3-.6.6-1 .6zm27.5 20.5h-24.8c-.5 0-.9-.4-.9-.9s.4-.9.9-.9h24.8c.5 0 .9.4.9.9s-.4.9-.9.9zm-45 23.8c-2.7 0-4.9-2.2-4.9-4.9s2.2-4.9 4.9-4.9 4.9 2.2 4.9 4.9-2.2 4.9-4.9 4.9zm0-8.1c-1.7 0-3.1 1.4-3.1 3.1 0 1.7 1.4 3.1 3.1 3.1 1.7 0 3.1-1.4 3.1-3.1 0-1.7-1.4-3.1-3.1-3.1zm15.5 8.1c-2.7 0-4.9-2.2-4.9-4.9s2.2-4.9 4.9-4.9 4.9 2.2 4.9 4.9-2.2 4.9-4.9 4.9zm0-8.1c-1.7 0-3.1 1.4-3.1 3.1 0 1.7 1.4 3.1 3.1 3.1 1.7 0 3.1-1.4 3.1-3.1 0-1.7-1.4-3.1-3.1-3.1zm45 13.1h-7.5c-.5 0-.9-.4-.9-.9s.4-.9.9-.9h7.5c.5 0 .9.4.9.9s-.4.9-.9.9z"/><path class="st1" d="M1272.4 705.8h-5.8c-1.5 0-2.6-1.2-2.6-2.6v-27c0-.5.4-.9.9-.9s.9.4.9.9v27c0 .5.4.8.8.8h5.8c.5 0 .9.4.9.9s-.4.9-.9.9zm19.5 4c-2.7 0-4.9-2.2-4.9-4.9s2.2-4.9 4.9-4.9 4.9 2.2 4.9 4.9-2.2 4.9-4.9 4.9zm0-8c-1.7 0-3.1 1.4-3.1 3.1 0 1.7 1.4 3.1 3.1 3.1 1.7 0 3.1-1.4 3.1-3.1 0-1.7-1.4-3.1-3.1-3.1z"/><path class="st1" d="M1276.4 709.8c-2.7 0-4.9-2.2-4.9-4.9s2.2-4.9 4.9-4.9 4.9 2.2 4.9 4.9-2.2 4.9-4.9 4.9zm0-8c-1.7 0-3.1 1.4-3.1 3.1 0 1.7 1.4 3.1 3.1 3.1 1.7 0 3.1-1.4 3.1-3.1 0-1.7-1.4-3.1-3.1-3.1zm-18.5 8.2h-5.8c-.5 0-.9-.4-.9-.9s.4-.9.9-.9h5.8c.5 0 .8-.4.8-.8v-31.2c0-.5.4-.9.9-.9s.9.4.9.9v31.2c0 1.4-1.1 2.6-2.6 2.6z"/><path class="st1" d="M1247.6 714c-2.7 0-4.9-2.2-4.9-4.9s2.2-4.9 4.9-4.9 4.9 2.2 4.9 4.9-2.2 4.9-4.9 4.9zm0-8c-1.7 0-3.1 1.4-3.1 3.1 0 1.7 1.4 3.1 3.1 3.1 1.7 0 3.1-1.4 3.1-3.1 0-1.7-1.4-3.1-3.1-3.1zM702 654.4h-.3L681 648c-.4-.1-.6-.5-.6-.9s.3-.8.6-.9l20.8-6.4c.2-.1.4-.1.5 0l20.8 6.4c.4.1.6.5.6.9s-.3.8-.6.9l-20.8 6.4h-.3zm-17.7-7.3l17.7 5.4 17.7-5.4-17.7-5.4-17.7 5.4zm17.7 33.7h-.3l-20.8-6.4c-.5-.1-.8-.7-.6-1.1.1-.5.7-.8 1.1-.6L702 679l20.5-6.3c.5-.2 1 .1 1.1.6.1.5-.1 1-.6 1.1l-20.8 6.4h-.2z"/><path class="st1" d="M702 680.8c-.5 0-.9-.4-.9-.9v-26.5c0-.5.4-.9.9-.9s.9.4.9.9v26.5c0 .5-.4.9-.9.9zm20.8-6.3c-.5 0-.9-.4-.9-.9v-26.5c0-.5.4-.9.9-.9s.9.4.9.9v26.5c0 .5-.4.9-.9.9zm-41.6 0c-.5 0-.9-.4-.9-.9v-26.5c0-.5.4-.9.9-.9s.9.4.9.9v26.5c0 .5-.4.9-.9.9z"/><path class="st1" d="M722.8 687.2h-.3l-20.8-6.4c-.4-.1-.6-.5-.6-.9s.3-.8.6-.9l20.8-6.4c.2-.1.4-.1.5 0l20.8 6.4c.4.1.6.5.6.9s-.3.8-.6.9l-20.8 6.4h-.2zm-17.7-7.3l17.7 5.4 17.7-5.4-17.7-5.4-17.7 5.4zm17.7 33.8h-.3l-20.8-6.4c-.5-.1-.8-.7-.6-1.1.1-.5.7-.8 1.1-.6l20.5 6.3 20.5-6.3c.5-.2 1 .1 1.1.6.1.5-.1 1-.6 1.1l-20.8 6.4c.1-.1 0 0-.1 0z"/><path class="st1" d="M722.8 713.7c-.5 0-.9-.4-.9-.9v-26.5c0-.5.4-.9.9-.9s.9.4.9.9v26.5c0 .4-.4.9-.9.9zm20.8-6.4c-.5 0-.9-.4-.9-.9v-26.5c0-.5.4-.9.9-.9s.9.4.9.9v26.5c0 .5-.4.9-.9.9zm-41.6 0c-.5 0-.9-.4-.9-.9v-26.5c0-.5.4-.9.9-.9s.9.4.9.9v26.5c0 .5-.4.9-.9.9z"/><path class="st1" d="M681.2 687.2h-.3l-20.8-6.4c-.4-.1-.6-.5-.6-.9s.3-.8.6-.9l20.8-6.4c.2-.1.4-.1.5 0l20.8 6.4c.4.1.6.5.6.9s-.3.8-.6.9l-20.8 6.4h-.2zm-17.6-7.3l17.7 5.4 17.7-5.4-17.7-5.4-17.7 5.4zm17.6 33.8h-.3l-20.8-6.4c-.5-.1-.8-.7-.6-1.1.1-.5.7-.8 1.1-.6l20.5 6.3 20.5-6.3c.5-.2 1 .1 1.1.6.1.5-.1 1-.6 1.1l-20.8 6.4c.1-.1 0 0-.1 0z"/><path class="st1" d="M681.2 713.7c-.5 0-.9-.4-.9-.9v-26.5c0-.5.4-.9.9-.9s.9.4.9.9v26.5c0 .4-.4.9-.9.9zm20.8-6.4c-.5 0-.9-.4-.9-.9v-26.5c0-.5.4-.9.9-.9s.9.4.9.9v26.5c0 .5-.4.9-.9.9zm-41.6 0c-.5 0-.9-.4-.9-.9v-26.5c0-.5.4-.9.9-.9s.9.4.9.9v26.5c0 .5-.4.9-.9.9zm-204.6-38c-.4 0-.7-.2-.8-.6-1.7-5.6-4.7-10.8-8.9-15-8.6-8.6-20.7-12.1-32.6-9.6-.4.1-.9-.2-1-.6-.1-.4.2-.9.6-1 12.4-2.7 25.1 1.1 34.1 10 4.4 4.4 7.6 9.8 9.3 15.7.1.4-.1.9-.6 1 0 0 0 .1-.1.1zm-66.4 28.1c-.3 0-.5-.1-.7-.4-9.4-13.7-6.9-32 6.1-44.5 3.1-3 6.4-5.3 9.7-7 .4-.2.9 0 1.1.4.2.4 0 .9-.4 1.1-3.2 1.6-6.3 3.8-9.3 6.7-12.4 11.9-14.8 29.3-5.9 42.4.3.4.2.9-.2 1.1-.1.1-.2.2-.4.2zm9.6 11c-.2 0-.4-.1-.5-.2-1.3-1-2.5-2.1-3.7-3.3-1.3-1.3-2.6-2.8-3.7-4.3-.3-.4-.2-.9.2-1.2.4-.3.9-.2 1.2.2 1.1 1.5 2.3 2.9 3.5 4.1 1.1 1.1 2.3 2.2 3.6 3.1.4.3.4.8.2 1.2-.3.3-.6.4-.8.4zm22 7.4c-5.5 0-11-1.2-16-3.6-.4-.2-.6-.7-.4-1.1.2-.4.7-.6 1.1-.4 9.5 4.6 21 4.6 30.5 0 .4-.2.9 0 1.1.4.2.4 0 .9-.4 1.1-5 2.4-10.4 3.6-15.9 3.6zm20.8-6.5c-.3 0-.5-.1-.7-.4-.3-.4-.2-.9.2-1.2 1.7-1.2 3.3-2.5 4.7-4 6.2-6.2 9.9-14.4 10.3-23.1 0-.5.4-.8.9-.8s.8.4.8.9c-.5 9.1-4.3 17.7-10.8 24.2-1.5 1.5-3.2 2.9-4.9 4.1-.1.2-.3.3-.5.3z"/><path class="st1" d="M421 707.4c-15.8 0-28.6-12.8-28.6-28.6s12.8-28.6 28.6-28.6 28.6 12.8 28.6 28.6c0 15.7-12.8 28.6-28.6 28.6zm0-55.6c-14.9 0-27 12.1-27 27s12.1 27 27 27 27-12.1 27-27-12.1-27-27-27z"/><path class="st1" d="M421 707.4c-7 0-13.3-6.7-16-17.2-.1-.4.1-.9.6-1 .4-.1.9.1 1 .6 2.6 9.7 8.2 16 14.4 16 8.7 0 15.8-12.1 15.8-27 0-1.1 0-2.3-.1-3.4 0-.5.3-.9.8-.9s.9.3.9.8c.1 1.2.1 2.4.1 3.5-.1 15.7-7.9 28.6-17.5 28.6zm-16.5-24.6c-.4 0-.8-.3-.8-.8-.1-1.1-.1-2.1-.1-3.2 0-15.8 7.8-28.6 17.4-28.6 7 0 13.3 6.8 16 17.3.1.4-.1.9-.6 1-.4.1-.9-.1-1-.6-2.6-9.7-8.2-16-14.4-16-8.7 0-15.8 12.1-15.8 27 0 1.1 0 2.1.1 3.1 0 .3-.3.7-.8.8z"/><path class="st1" d="M421 707.4c-.5 0-.8-.4-.8-.8v-6.4c0-.5.4-.8.8-.8.5 0 .8.4.8.8v6.4c0 .4-.3.8-.8.8zm0-14.1c-.5 0-.8-.4-.8-.8V651c0-.5.4-.8.8-.8.5 0 .8.4.8.8v41.5c0 .4-.3.8-.8.8zm26.4-21.1h-6.6c-.5 0-.8-.4-.8-.8 0-.5.4-.8.8-.8h6.6c.5 0 .8.4.8.8 0 .5-.3.8-.8.8z"/><path class="st1" d="M433.1 672.2h-38.5c-.5 0-.8-.4-.8-.8 0-.5.4-.8.8-.8h38.5c.5 0 .8.4.8.8 0 .5-.4.8-.8.8zm14.3 14.7h-38.6c-.5 0-.8-.4-.8-.8 0-.5.4-.8.8-.8h38.6c.5 0 .8.4.8.8s-.3.8-.8.8zm-46.3 0h-6.5c-.5 0-.8-.4-.8-.8 0-.5.4-.8.8-.8h6.5c.5 0 .8.4.8.8s-.4.8-.8.8z"/><path class="st1" d="M436.9 676.1c-2.6 0-4.7-2.1-4.7-4.7s2.1-4.7 4.7-4.7 4.7 2.1 4.7 4.7-2.1 4.7-4.7 4.7zm0-7.7c-1.7 0-3 1.4-3 3 0 1.7 1.4 3 3 3 1.7 0 3-1.4 3-3 .1-1.7-1.3-3-3-3zm-32 22.4c-2.6 0-4.7-2.1-4.7-4.7s2.1-4.7 4.7-4.7 4.7 2.1 4.7 4.7-2.1 4.7-4.7 4.7zm0-7.8c-1.7 0-3 1.4-3 3 0 1.7 1.4 3 3 3 1.7 0 3-1.4 3-3 .1-1.6-1.3-3-3-3zm16.1 18c-2.6 0-4.7-2.1-4.7-4.7s2.1-4.7 4.7-4.7 4.7 2.1 4.7 4.7-2.1 4.7-4.7 4.7zm0-7.7c-1.7 0-3 1.4-3 3 0 1.7 1.4 3 3 3 1.7 0 3-1.4 3-3 0-1.7-1.3-3-3-3zm156.6-157c-7.6 0-13.7-6.2-13.7-13.7 0-7.6 6.2-13.7 13.7-13.7 7.6 0 13.7 6.2 13.7 13.7.1 7.6-6.1 13.7-13.7 13.7zm0-25.9c-6.7 0-12.1 5.4-12.1 12.1s5.4 12.1 12.1 12.1c6.7 0 12.1-5.4 12.1-12.1s-5.4-12.1-12.1-12.1zm3.5-8.6c-3.8 0-6.9-3.1-6.9-6.9 0-3.8 3.1-6.9 6.9-6.9 3.8 0 6.9 3.1 6.9 6.9 0 3.8-3.1 6.9-6.9 6.9zm0-12.2c-2.9 0-5.3 2.4-5.3 5.3s2.4 5.3 5.3 5.3 5.3-2.4 5.3-5.3-2.4-5.3-5.3-5.3zm29.9 25.6c-3.8 0-6.9-3.1-6.9-6.9 0-3.8 3.1-6.9 6.9-6.9 3.8 0 6.9 3.1 6.9 6.9 0 3.8-3.1 6.9-6.9 6.9zm0-12.2c-2.9 0-5.3 2.4-5.3 5.3s2.4 5.3 5.3 5.3 5.3-2.4 5.3-5.3-2.3-5.3-5.3-5.3zm-8.4 49.6c-3.8 0-6.9-3.1-6.9-6.9 0-3.8 3.1-6.9 6.9-6.9 3.8 0 6.9 3.1 6.9 6.9 0 3.8-3.1 6.9-6.9 6.9zm0-12.2c-2.9 0-5.3 2.4-5.3 5.3s2.4 5.3 5.3 5.3 5.3-2.4 5.3-5.3-2.4-5.3-5.3-5.3zm-52.8 9.3c-3.8 0-6.9-3.1-6.9-6.9 0-3.8 3.1-6.9 6.9-6.9 3.8 0 6.9 3.1 6.9 6.9 0 3.8-3.1 6.9-6.9 6.9zm0-12.2c-2.9 0-5.3 2.4-5.3 5.3s2.4 5.3 5.3 5.3 5.3-2.4 5.3-5.3-2.3-5.3-5.3-5.3zm4.3-16.8c-3.8 0-6.9-3.1-6.9-6.9 0-3.8 3.1-6.9 6.9-6.9s6.9 3.1 6.9 6.9c0 3.8-3.1 6.9-6.9 6.9zm0-12.2c-2.9 0-5.3 2.4-5.3 5.3s2.4 5.3 5.3 5.3 5.3-2.4 5.3-5.3-2.4-5.3-5.3-5.3z"/><path class="st1" d="M579.2 510.4c-.1 0-.1 0 0 0-.5-.1-.9-.5-.8-.9l1-8.6c.1-.4.5-.8.9-.7.4.1.8.5.7.9l-1 8.6c-.1.4-.4.7-.8.7zm10.4 8c-.3 0-.6-.2-.7-.5-.2-.4 0-.9.4-1.1l16-6.7c.4-.2.9 0 1.1.4.2.4 0 .9-.4 1.1l-16 6.7c-.2.1-.3.1-.4.1zm8.5 24c-.2 0-.4-.1-.5-.2l-10.9-9.9c-.3-.3-.4-.8-.1-1.1.3-.3.8-.4 1.1-.1l10.9 9.9c.3.3.4.8.1 1.1-.2.2-.4.3-.6.3zm-32.9-23.1c-.1 0-.2 0-.3-.1l-5.5-2.1c-.4-.2-.6-.6-.5-1 .2-.4.6-.6 1-.5l5.5 2.1c.4.2.6.6.5 1-.1.4-.4.6-.7.6zM555 540.4c-.2 0-.5-.1-.6-.3-.3-.4-.2-.9.2-1.1l12.2-9.3c.4-.3.9-.2 1.1.2.3.4.2.9-.2 1.1l-12.2 9.3c-.1.1-.3.1-.5.1zm20 13c-2.5 0-4.6-2-4.6-4.6 0-2.5 2-4.6 4.6-4.6 2.5 0 4.6 2 4.6 4.6-.1 2.6-2.1 4.6-4.6 4.6zm0-7.5c-1.6 0-2.9 1.3-2.9 2.9s1.3 2.9 2.9 2.9c1.6 0 2.9-1.3 2.9-2.9s-1.3-2.9-2.9-2.9z"/><path class="st1" d="M575.3 545.9c-.5 0-.8-.4-.8-.9l.2-1.6c0-.4.4-.8.9-.7.4 0 .8.4.7.9l-.2 1.6c0 .4-.4.7-.8.7zm.7-6.4s-.1 0 0 0c-.5 0-.8-.4-.8-.9l.3-3.2c0-.4.4-.8.9-.7.4 0 .8.4.7.9l-.3 3.2c-.1.4-.4.7-.8.7zm23.4-6c-.5 0-1.1-.1-1.6-.3-2.3-.9-3.5-3.5-2.6-5.9.9-2.3 3.5-3.5 5.9-2.6 2.3.9 3.5 3.5 2.6 5.9-.8 1.8-2.5 2.9-4.3 2.9zm0-7.5c-1.2 0-2.3.7-2.8 1.9-.6 1.5.2 3.2 1.7 3.8 1.5.6 3.2-.2 3.8-1.7.6-1.5-.2-3.2-1.7-3.8-.3-.2-.7-.2-1-.2z"/><path class="st1" d="M595.6 528.6h-.2l-5.6-1.6c-.4-.1-.7-.6-.5-1 .1-.4.6-.7 1-.5l5.6 1.6c.4.1.7.6.5 1-.1.3-.4.5-.8.5zm-42.5-30.3c-1.2 0-2.3-.4-3.2-1.3-1.8-1.8-1.8-4.7 0-6.4 1.8-1.8 4.7-1.8 6.4 0 1.8 1.8 1.8 4.7 0 6.4-.9.8-2.1 1.3-3.2 1.3zm-2.1-2.5c1.1 1.1 3 1.1 4.2 0 1.1-1.1 1.1-3 0-4.2-1.1-1.1-3-1.1-4.2 0-1.2 1.2-1.2 3.1 0 4.2z"/><path class="st1" d="M569.5 513.3c-.2 0-.5-.1-.6-.3l-2.1-2.4c-.3-.3-.3-.8.1-1.1.3-.3.8-.3 1.1.1l2.1 2.4c.3.3.3.8-.1 1.1-.1.1-.3.2-.5.2zm-5.2-6.1c-.2 0-.5-.1-.6-.3l-8.6-10c-.3-.3-.3-.8.1-1.1.3-.3.8-.3 1.1.1l8.6 10c.3.3.3.8-.1 1.1-.1.1-.3.2-.5.2z"/></g><g id="Person"><path class="st2" d="M2365 1254.2L-12 1260V887h2377z"/><path fill="#1f4b99" d="M1802.1 888.9h-312.7V678.4l96.9-85.2h141.3l74.5 85.2z"/><path class="st4" d="M1789.3 498.7c0 68.7-55.7 124.3-124.3 124.3-68.7 0-124.3-55.7-124.3-124.3 0-16.5 3.2-32.3 9.1-46.8 18.5-45.5 63.1-77.6 115.2-77.6 68.6 0 124.3 55.7 124.3 124.4z"/><path d="M1779.1 580.2c14.7-21.5 24.9-57.7 26.2-97.5 1.3-39.8-21.3-84.7-47.6-101.3-26.3-16.6-53.9-19.1-83.7-21.8-29.9-2.7-62.8-10-84.4-27.6-21.6-17.6-29.5-32.6-29.5-32.6s-13 41.6 3.3 65.9c16.3 24.3 35.9 38.9 60.5 48.3s48.2 17.2 66.5 20.3c18.3 3.1 38.8 6.4 38.8 6.4l6.1 47.6c16.7-5.6 21.1-15.2 20.2 7.5s2.6 23.1-8.2 26.4-16.6 4.2-16.6 4.2l34.3 68.7" fill="#4d575e"/><path d="M1600.5 451.1c1.3 11.8 8.7 21.6 18.8 24.8 9.1 2.9 17.1-.5 19.4-1.5" fill="none" stroke="#282524" stroke-width="2" stroke-miterlimit="10"/><path class="st4" d="M1520.7 505.1l22.7-25.6v32.7z"/><path d="M1561 567s7.3 5.6 13-.1" fill="none" stroke="#232121" stroke-width="2" stroke-miterlimit="10"/><path class="st8" d="M1493.7 677.2l-84.2-44.6-24.7-101.6-18.5 2.2 9.3 129.1 118.1 80.1z"/><path class="st4" d="M1385.7 506.8s0-10.3-9.9-10.3-9.9 10.3-9.9 10.3v26.7h19.9v-26.7zm402.1 435.6l-10.6-13.6-25.2 19.8s-7.9 4.4-1.8 11.7c6.1 7.3 12.4 1.8 12.4 1.8l25.2-19.7z"/><path class="st4" d="M1395.3 516.2s1.9-2-1-3.4-5.2 1.8-5.2 1.8l-9.2 10.5 4.8 3.6 10.6-12.5z"/><path class="st8" d="M1779.3 756.5l35.3 92.1-47.9 88 17.1 13.3 76.2-97-26.7-139.1-36.1-41.3z"/><path class="st4" d="M1750.3 940.2s-2.8 0-1.8 3.1c1 3.1 4.9 2.6 4.9 2.6l14-.4-.6-6-16.5.7z"/></g><g id="Logo"><linearGradient id="SVGID_1_" gradientUnits="userSpaceOnUse" x1="808.221" y1="421.545" x2="808.221" y2="281.681"><stop offset="0" stop-color="#5a6a83"/><stop offset="1" stop-color="#fff"/></linearGradient><path opacity=".6" fill="url(#SVGID_1_)" stroke="#9aa3a7" stroke-width=".1" stroke-miterlimit="10" d="M808.2 281.7l-133.7 60.7 133.7 79.1 133.7-79.1z"/><linearGradient id="SVGID_2_" gradientUnits="userSpaceOnUse" x1="741.385" y1="556.178" x2="741.385" y2="367.841"><stop offset="0" stop-color="#5a6a83"/><stop offset="1" stop-color="#fff"/></linearGradient><path opacity=".45" fill="url(#SVGID_2_)" stroke="#9aa3a7" stroke-width=".1" stroke-miterlimit="10" d="M674.5 367.8l133.7 188.4V446.8z"/><linearGradient id="SVGID_3_" gradientUnits="userSpaceOnUse" x1="808.221" y1="462.009" x2="942" y2="462.009"><stop offset="0" stop-color="#9aa3a7"/><stop offset="1" stop-color="#fff"/></linearGradient><path opacity=".8" fill="url(#SVGID_3_)" stroke="#9aa3a7" stroke-width=".1" stroke-miterlimit="10" d="M808.2 446.8v109.4L942 367.8z"/><linearGradient id="SVGID_4_" gradientUnits="userSpaceOnUse" x1="808.221" y1="271.057" x2="674.549" y2="271.057"><stop offset="0" stop-color="#9aa3a7"/><stop offset="1" stop-color="#fff"/></linearGradient><path opacity=".45" fill="url(#SVGID_4_)" stroke="#9aa3a7" stroke-width=".1" stroke-miterlimit="10" d="M674.5 342.4l133.7 79.1V120.6z"/><linearGradient id="SVGID_5_" gradientUnits="userSpaceOnUse" x1="808.221" y1="271.057" x2="941.893" y2="271.057"><stop offset="0" stop-color="#9aa3a7"/><stop offset="1" stop-color="#fff"/></linearGradient><path opacity=".39" fill="url(#SVGID_5_)" stroke="#9aa3a7" stroke-width=".1" stroke-miterlimit="10" d="M808.2 120.6v300.9l133.7-79.1z"/><g id="_x2E_NET_logo"><circle class="st2" cx="809.4" cy="304.6" r="61.6"/><path d="M766.7 260.3c-25.4 22.6-27.6 61.6-5 87s61.6 27.6 87 5c1.8-1.6 3.4-3.2 5-5l-87-87z" opacity=".1" fill="#fff"/><path d="M762.1 322.4a2.732 2.732 0 0 1-2.7-2.7 2.732 2.732 0 0 1 2.7-2.7 2.732 2.732 0 0 1 2.7 2.7 2.732 2.732 0 0 1-2.7 2.7zm38.2-.5h-5l-18-28c-.4-.7-.8-1.4-1.1-2.2h-.2c.2 1.6.2 3.2.2 4.8v25.4h-4.1v-35.1h5.3l17.6 27.5c.7 1.1 1.2 1.9 1.4 2.3h.1c-.2-1.7-.3-3.4-.3-5.2v-24.7h4.1v35.2zm27.8 0h-18.6v-35.1h17.8v3.7h-13.6v11.7h12.7v3.7h-12.7v12.2h14.5l-.1 3.8zm27.5-31.4h-10.2v31.4h-4.1v-31.4h-10.1v-3.7h24.4v3.7z" fill="#fff"/></g></g></svg>